<?xml version="1.0" standalone="no"?>
<!DOCTYPE svg PUBLIC "-//W3C//DTD SVG 20010904//EN"
 "http://www.w3.org/TR/2001/REC-SVG-20010904/DTD/svg10.dtd">
<svg version="1.0" xmlns="http://www.w3.org/2000/svg"
 width="600.000000pt" height="600.000000pt" viewBox="0 0 600.000000 600.000000"
 preserveAspectRatio="xMidYMid meet">

<g transform="translate(0.000000,600.000000) scale(0.100000,-0.100000)"
fill="#000000" stroke="none">
<path d="M3552 5861 c-10 -6 -10 -14 -2 -35 12 -34 12 -36 0 -36 -5 0 -10 7
-10 15 0 24 -18 18 -23 -7 -4 -25 -11 -15 -21 35 -8 36 -22 27 -31 -19 -6 -33
-8 -34 -19 -18 -12 16 -14 15 -21 -17 l-8 -34 -13 30 c-14 33 -15 33 -20 -7
-1 -16 1 -28 5 -28 4 0 6 -13 3 -29 -2 -16 1 -32 7 -35 6 -4 11 0 11 8 0 8 7
19 16 24 9 5 16 13 16 18 1 5 3 18 6 28 5 20 5 20 12 0 6 -16 9 -14 18 16 8
27 10 29 11 12 1 -13 5 -20 11 -17 5 3 7 0 4 -8 -3 -8 2 -20 11 -27 14 -12 18
-11 26 1 7 12 9 12 9 -1 0 -9 -4 -20 -10 -26 -14 -14 -2 -48 22 -63 17 -11 22
-10 30 1 5 8 6 -2 2 -26 -8 -47 11 -42 23 5 5 17 13 30 18 29 6 -1 12 8 15 20
5 19 7 20 25 5 14 -11 15 -13 3 -9 -18 6 -37 -33 -22 -45 13 -9 16 -61 5 -75
-12 -14 0 -38 14 -28 6 4 15 21 21 37 6 19 16 29 27 29 18 -2 21 5 11 30 -3 9
-10 14 -14 11 -4 -3 -10 8 -12 24 -3 21 -1 28 9 24 9 -4 11 0 6 13 -4 11 -3
15 4 11 6 -4 13 -21 17 -39 5 -26 9 -30 16 -18 5 8 10 11 10 5 1 -13 24 37 29
63 1 4 5 1 10 -6 4 -8 7 -35 5 -60 l-3 -47 18 24 c10 13 17 33 15 45 -2 12 3
4 12 -16 19 -42 25 -45 48 -22 21 20 20 27 -4 42 -19 12 -20 11 -15 -15 4 -23
3 -22 -8 6 -8 20 -21 35 -32 37 -11 2 -21 8 -23 13 -2 6 -13 11 -25 12 -12 0
-16 3 -9 6 6 2 12 14 12 26 -1 21 -1 22 -15 3 -16 -21 -16 -22 -33 14 -12 25
-12 25 -7 -5 l6 -30 -21 25 c-11 14 -20 31 -20 38 0 7 -4 11 -9 8 -5 -4 -12 0
-15 6 -4 7 -4 3 -2 -9 5 -28 -21 -39 -29 -12 -8 25 -25 25 -18 -1 4 -16 2 -19
-11 -14 -9 3 -16 10 -16 16 0 5 -5 6 -11 3 -6 -4 -8 -14 -4 -24 5 -13 4 -14
-6 -3 -7 6 -16 32 -19 57 -4 33 -8 42 -18 36z m91 -136 c4 -8 3 -16 -1 -19 -4
-3 -9 4 -9 15 -2 23 3 25 10 4z m-43 -32 c0 -22 -2 -25 -10 -13 -13 20 -13 40
0 40 6 0 10 -12 10 -27z m-20 -27 c0 -3 -4 -8 -10 -11 -5 -3 -10 -1 -10 4 0 6
5 11 10 11 6 0 10 -2 10 -4z m107 -68 c-3 -8 -6 -5 -6 6 -1 11 2 17 5 13 3 -3
4 -12 1 -19z"/>
<path d="M3117 5813 c-10 -9 -9 -23 1 -23 5 0 9 7 9 15 0 17 -1 18 -10 8z"/>
<path d="M3240 5817 c0 -1 -4 -17 -9 -35 -7 -24 -6 -32 3 -32 7 0 12 14 12 35
0 19 -1 35 -3 35 -2 0 -3 -1 -3 -3z"/>
<path d="M2981 5775 c0 -16 7 -43 17 -58 l19 -28 2 50 c1 28 -4 53 -10 57 -8
4 -9 0 -4 -15 3 -12 2 -21 -4 -21 -5 0 -12 10 -14 23 -3 17 -5 16 -6 -8z"/>
<path d="M3256 5785 c-3 -9 0 -15 9 -15 9 0 12 6 9 15 -4 8 -7 15 -9 15 -2 0
-5 -7 -9 -15z"/>
<path d="M3137 5778 c-8 -23 3 -64 14 -47 6 10 11 7 18 -11 8 -21 10 -22 9 -5
0 27 -16 74 -18 55 -1 -11 -4 -10 -9 4 -6 17 -8 17 -14 4z"/>
<path d="M3351 5777 c0 -10 -5 -16 -10 -13 -8 5 -24 -45 -16 -52 7 -7 36 51
32 66 -4 15 -5 15 -6 -1z"/>
<path d="M3100 5763 c0 -5 5 -15 10 -23 8 -12 10 -11 10 8 0 12 -4 22 -10 22
-5 0 -10 -3 -10 -7z"/>
<path d="M3258 5724 c-2 -19 -1 -54 3 -77 5 -35 7 -29 8 36 1 81 -4 101 -11
41z"/>
<path d="M2868 5727 c-3 -14 6 -37 24 -61 l28 -39 0 33 c0 24 -4 31 -15 26
-14 -5 -20 9 -16 41 3 22 -17 23 -21 0z"/>
<path d="M3827 5729 c4 -13 8 -18 11 -10 2 7 -1 18 -6 23 -8 8 -9 4 -5 -13z"/>
<path d="M3030 5710 c0 -12 5 -30 10 -40 14 -25 60 -72 60 -60 0 5 -4 12 -10
15 -15 9 -12 28 4 22 9 -4 7 5 -7 27 -14 21 -25 29 -29 22 -5 -7 -8 -5 -8 6 0
9 -4 20 -10 23 -5 3 -10 -3 -10 -15z"/>
<path d="M3373 5695 c0 -22 2 -30 4 -17 2 12 2 30 0 40 -3 9 -5 -1 -4 -23z"/>
<path d="M3452 5688 c-15 -42 -8 -48 12 -9 18 34 19 41 8 41 -4 0 -13 -14 -20
-32z"/>
<path d="M2945 5675 c4 -22 11 -44 17 -50 7 -7 8 1 3 25 -11 53 -28 74 -20 25z"/>
<path d="M3099 5691 c6 -10 13 -33 16 -52 3 -19 13 -41 21 -49 12 -12 14 -10
14 22 0 20 -4 40 -10 43 -5 3 -10 14 -10 25 0 10 -7 21 -16 24 -24 9 -26 8
-15 -13z"/>
<path d="M3140 5697 c0 -17 30 -65 45 -70 17 -7 19 16 4 48 -9 19 -9 18 -5 -2
6 -32 -10 -29 -28 5 -8 15 -15 23 -16 19z"/>
<path d="M3222 5684 c-12 -14 -7 -59 8 -69 11 -7 22 54 12 70 -6 10 -9 10 -20
-1z"/>
<path d="M2846 5608 c2 -46 5 -88 6 -95 1 -6 12 -14 25 -18 13 -3 23 -11 23
-18 0 -14 57 -60 77 -63 6 -1 14 5 18 14 5 13 8 12 25 -6 11 -12 20 -25 20
-30 0 -5 12 -19 26 -33 l26 -24 -7 25 c-7 24 -42 71 -57 78 -5 2 -8 11 -8 20
0 10 -11 22 -25 29 -23 10 -25 9 -19 -12 5 -20 3 -23 -15 -18 -21 5 -29 23
-11 23 6 0 -1 11 -15 25 -14 14 -25 33 -25 41 0 8 -4 13 -9 9 -6 -3 -15 3 -21
12 -9 15 -10 14 -5 -7 5 -19 4 -22 -4 -10 -6 8 -10 33 -10 55 0 31 2 36 9 20
6 -14 9 -15 9 -4 1 19 -21 69 -31 69 -4 0 -5 -37 -2 -82z"/>
<path d="M3506 5653 c10 -40 14 -41 14 -5 0 18 -5 32 -10 32 -6 0 -8 -11 -4
-27z"/>
<path d="M3481 5644 c0 -11 3 -14 6 -6 3 7 2 16 -1 19 -3 4 -6 -2 -5 -13z"/>
<path d="M2785 5618 c-8 -44 -4 -70 13 -76 10 -3 12 4 7 32 -6 28 -4 37 9 42
9 3 16 11 16 16 0 6 -6 8 -14 5 -8 -3 -17 -1 -19 6 -2 7 -8 -4 -12 -25z"/>
<path d="M3920 5630 c0 -5 5 -10 10 -10 6 0 10 5 10 10 0 6 -4 10 -10 10 -5 0
-10 -4 -10 -10z"/>
<path d="M3976 5616 c-4 -15 -5 -31 -2 -33 3 -3 -1 -12 -9 -20 -8 -8 -15 -24
-14 -36 1 -20 2 -20 8 3 4 14 14 26 23 28 21 4 43 -33 27 -44 -8 -4 -7 -9 2
-15 11 -7 10 -9 -5 -9 -12 0 -16 -5 -13 -14 4 -9 -2 -17 -14 -21 -18 -6 -23
-16 -20 -42 1 -7 -5 -13 -14 -13 -8 0 -15 4 -15 9 0 5 -3 17 -7 27 -4 12 -3
15 6 10 7 -5 20 1 32 15 20 23 27 55 9 44 -5 -3 -10 -13 -10 -21 0 -8 -9 -14
-20 -14 -17 0 -20 7 -21 43 l-1 42 -18 -50 c-18 -45 -19 -46 -14 -13 3 20 1
45 -5 55 -10 17 -10 16 -11 -4 0 -31 -11 -54 -21 -47 -5 3 -9 -9 -9 -25 0 -17
-4 -31 -8 -31 -10 0 -8 42 3 78 5 14 3 22 -4 22 -6 0 -11 12 -11 26 0 14 -4
23 -9 20 -5 -4 -5 -23 1 -48 7 -33 6 -43 -6 -50 -17 -9 -66 -108 -66 -132 0
-25 -20 -19 -21 7 l0 22 -10 -23 c-5 -13 -7 -28 -4 -32 3 -4 -3 -6 -14 -3 -15
4 -18 0 -16 -21 2 -14 -1 -28 -6 -32 -5 -3 -9 -11 -9 -17 0 -8 3 -8 8 -2 4 6
16 17 26 25 18 14 19 13 13 -19 -5 -24 -4 -32 6 -28 7 3 13 -5 13 -20 1 -16
-2 -23 -11 -19 -7 2 -21 -4 -30 -14 -16 -18 -16 -18 4 -13 12 3 21 1 21 -6 0
-6 -7 -11 -15 -11 -17 0 -20 -16 -5 -25 16 -10 12 -22 -10 -28 -11 -3 -18 -1
-14 4 3 5 2 13 -1 19 -8 13 -45 -10 -46 -30 0 -8 -3 -10 -5 -4 -3 6 -16 9 -29
6 -21 -4 -25 -1 -23 20 1 13 -10 40 -26 61 -35 46 -21 49 17 5 18 -22 25 -26
21 -13 -4 11 -14 28 -22 38 -17 20 -10 22 21 5 19 -10 20 -9 9 4 -16 20 -12
70 6 63 8 -3 15 -5 17 -5 2 0 1 -19 -2 -41 -5 -32 -3 -41 7 -37 8 2 15 17 17
34 2 16 8 42 13 58 6 17 6 34 1 40 -5 6 -5 20 0 31 11 29 11 35 -3 35 -9 0
-12 16 -10 52 2 39 0 49 -7 38 -9 -13 -11 -12 -11 3 0 10 -4 15 -10 12 -9 -6
-88 40 -102 60 -5 6 -8 3 -8 -7 0 -17 -15 -19 -39 -4 -14 9 -31 -8 -31 -31 0
-26 -21 -12 -27 17 -6 30 -6 30 -23 12 -12 -13 -16 -28 -13 -48 l6 -29 -30 37
c-17 21 -33 35 -35 32 -11 -10 20 -78 43 -96 l24 -18 -25 9 c-32 11 -66 -9
-48 -27 9 -9 9 -12 1 -12 -7 0 -14 4 -17 9 -3 5 -15 11 -25 14 -19 5 -19 4 -4
-19 15 -23 14 -24 -3 -17 -17 6 -17 5 -6 -10 8 -8 20 -13 27 -11 13 5 42 -33
32 -42 -2 -2 -22 9 -45 26 -23 16 -44 30 -47 30 -3 0 -3 -17 1 -37 l7 -37 -26
26 c-28 28 -64 44 -75 34 -3 -4 0 -12 6 -18 19 -19 14 -26 -13 -20 -20 3 -24
1 -19 -11 3 -10 -1 -17 -13 -21 -10 -3 1 -3 24 -2 24 2 40 -1 37 -6 -3 -4 -8
-6 -12 -4 -4 2 -13 -2 -20 -10 -11 -12 -8 -16 15 -25 15 -5 35 -8 45 -6 10 3
18 1 18 -5 0 -12 -60 -8 -78 5 -7 6 -16 6 -20 2 -4 -4 -1 -10 7 -13 24 -8 -48
-32 -79 -25 -44 8 -41 -23 3 -33 l32 -7 -29 -12 c-29 -12 -29 -13 -7 -20 22
-7 33 1 44 30 3 6 7 7 10 4 4 -3 -2 -22 -12 -42 -10 -20 -14 -34 -8 -30 6 3 7
1 3 -5 -4 -7 -13 -12 -20 -12 -7 0 -21 -7 -32 -15 -18 -15 -15 -15 35 -9 60 7
65 -9 6 -20 -25 -5 -39 -14 -45 -30 -8 -23 -59 -56 -85 -56 -7 0 -18 7 -25 15
-7 8 -21 15 -31 15 -11 0 -19 5 -19 10 0 6 -8 10 -17 10 -13 0 -14 -3 -5 -12
16 -16 15 -25 -3 -32 -11 -4 -14 1 -12 22 2 15 7 34 11 43 11 25 102 80 120
73 9 -3 16 -2 16 4 0 5 -10 12 -22 16 -36 9 -108 7 -108 -3 0 -6 -15 -11 -32
-13 -25 -2 -33 -8 -31 -22 1 -15 -4 -17 -28 -12 -21 4 -29 2 -29 -8 0 -8 -13
-19 -30 -25 -32 -11 -38 -28 -17 -50 10 -11 9 -13 -6 -8 -11 4 -16 3 -12 -4 4
-6 -3 -13 -15 -16 -16 -4 -20 -11 -17 -27 2 -11 1 -32 -3 -46 -8 -24 -8 -23
-9 8 -1 17 -5 32 -11 32 -5 0 -7 7 -4 15 4 8 1 15 -6 15 -6 0 -9 8 -6 18 3 9
1 24 -4 32 -9 13 -12 12 -25 -5 -12 -16 -19 -17 -33 -8 -9 6 -16 21 -14 33 2
19 -1 21 -25 15 -24 -6 -25 -5 -13 10 12 15 10 16 -16 9 l-29 -7 24 20 24 20
-59 6 c-44 5 -65 2 -82 -9 -13 -8 -29 -13 -35 -10 -8 3 -6 5 3 5 8 1 26 11 40
22 l25 20 -25 -7 c-37 -10 -71 -35 -67 -48 2 -6 -3 -16 -12 -23 -13 -10 -13
-12 -2 -13 11 0 9 -4 -5 -15 -10 -8 -15 -15 -9 -15 5 0 -9 -18 -30 -40 -44
-45 -33 -53 23 -15 38 26 62 32 62 16 0 -5 8 -12 18 -14 16 -4 16 -5 0 -6 -10
0 -18 -6 -18 -11 0 -10 84 -4 102 6 3 2 4 -4 1 -15 -4 -15 0 -18 22 -14 18 4
33 -1 50 -17 23 -22 24 -25 8 -42 -9 -10 -13 -21 -10 -24 3 -4 -1 -20 -10 -37
-8 -17 -19 -43 -24 -59 -7 -24 -5 -28 13 -28 25 0 126 -28 148 -41 8 -5 20
-12 26 -15 6 -3 35 6 65 19 127 56 161 62 241 43 35 -8 122 -17 193 -20 72 -4
142 -9 156 -12 19 -4 34 1 55 19 28 25 29 51 0 28 -8 -7 -17 -8 -20 -3 -3 5
12 14 34 20 26 6 42 6 46 0 3 -5 13 -7 21 -4 9 4 21 0 27 -8 14 -19 52 -25 48
-8 -1 7 5 15 13 18 8 4 15 15 15 25 0 22 -10 24 -29 7 -11 -10 -13 -10 -7 0
10 17 -10 15 -29 -4 -23 -23 -32 -8 -10 16 17 18 17 20 1 20 -14 0 -15 4 -6
20 6 11 8 25 5 30 -5 8 35 43 42 36 2 -2 -1 -16 -7 -31 -10 -27 -10 -27 30 9
22 20 41 36 43 36 1 0 3 -24 2 -52 0 -49 2 -53 23 -52 21 1 21 0 6 -23 -15
-24 -15 -24 6 -13 14 7 20 8 16 1 -10 -16 24 -49 45 -44 11 3 19 0 19 -6 0 -6
5 -11 11 -11 6 0 8 7 5 16 -5 12 -2 15 11 10 15 -6 14 -4 -2 14 -14 16 -21 18
-25 8 -8 -19 -40 -19 -33 0 5 10 2 13 -6 8 -8 -5 -5 6 5 25 16 30 19 31 22 13
2 -16 9 -20 26 -17 13 3 27 0 30 -6 5 -7 1 -9 -9 -5 -22 9 -10 -17 19 -38 22
-16 23 -16 19 5 -4 18 1 23 18 24 16 2 19 -1 10 -10 -15 -15 -14 -32 2 -20 21
17 46 23 52 12 4 -5 3 -9 -2 -8 -20 3 -34 -2 -28 -11 3 -6 -4 -10 -17 -10 -18
0 -20 -2 -8 -10 9 -5 19 -5 27 1 6 6 21 8 33 4 12 -4 20 -2 20 5 0 6 4 9 8 6
5 -3 9 8 9 24 0 16 -6 31 -14 34 -7 3 -13 1 -13 -3 0 -5 6 -12 13 -14 8 -4 9
-6 0 -6 -6 -1 -19 7 -29 17 -17 16 -16 17 16 20 25 3 30 6 19 13 -12 8 -12 10
1 18 22 15 10 18 -43 13 -36 -3 -47 -8 -43 -18 6 -16 -29 -20 -39 -4 -3 6 1 7
9 4 16 -6 19 1 19 38 0 10 5 14 13 11 8 -3 11 -9 8 -14 -3 -5 4 -9 15 -9 14 0
21 6 21 20 0 22 16 27 23 8 3 -9 14 -5 33 13 40 36 63 43 57 19 -4 -14 3 -23
22 -32 24 -11 25 -13 8 -19 -11 -4 -24 0 -36 12 -10 11 -25 19 -34 19 -9 0
-13 -3 -9 -7 4 -5 11 -8 16 -8 9 0 60 -52 60 -61 0 -5 -11 -2 -60 14 -8 2 -4
-4 10 -14 14 -10 29 -24 33 -31 9 -15 47 -18 47 -3 0 6 -7 10 -15 10 -17 0
-19 9 -5 30 9 15 11 14 14 -12 2 -14 9 -14 41 -2 11 4 17 4 13 0 -7 -8 21 -46
35 -46 4 0 3 9 -3 20 -6 11 -7 20 -3 20 12 0 47 -69 40 -77 -4 -3 -7 1 -7 11
0 13 -5 16 -19 11 -11 -3 -22 -1 -26 5 -5 8 -11 8 -20 0 -10 -8 -19 -8 -35 2
-18 11 -23 10 -35 -6 -11 -15 -12 -23 -3 -33 9 -11 8 -13 -1 -11 -7 2 -17 -7
-21 -19 -7 -17 -6 -21 5 -16 8 3 13 9 10 13 -3 4 2 11 11 14 10 4 14 14 11 26
-4 16 0 18 31 16 19 -2 41 -11 47 -20 14 -19 30 -22 19 -3 -5 8 -2 8 9 -2 23
-19 22 -20 -18 -16 -19 2 -32 -1 -29 -6 3 -5 -6 -5 -20 1 -27 10 -43 -1 -30
-22 4 -6 3 -8 -4 -4 -15 9 -46 -24 -34 -36 6 -6 20 -3 37 8 31 20 77 23 98 6
10 -8 23 -9 38 -4 13 5 31 7 39 5 8 -2 5 2 -7 8 -26 14 -30 29 -8 29 19 0 21
60 3 78 -9 9 -8 12 6 12 9 0 26 -5 37 -10 13 -7 19 -7 19 0 0 5 -4 10 -9 10
-11 0 -63 52 -57 57 2 2 16 -7 31 -21 32 -29 60 -22 62 16 0 13 -1 17 -4 11
-9 -24 -28 -13 -46 27 -20 44 -14 73 9 43 7 -10 14 -13 14 -6 0 7 7 10 15 7 8
-3 14 -9 13 -12 -3 -25 4 -41 16 -36 10 4 12 -2 9 -21 -5 -21 -2 -24 12 -19
14 6 16 4 9 -12 -16 -35 -10 -69 12 -72 11 -2 28 -17 38 -34 14 -23 20 -27 27
-17 7 11 9 11 9 -2 0 -23 19 -36 60 -43 19 -4 42 -9 50 -11 8 -2 22 -4 31 -4
9 -1 20 -11 24 -23 7 -22 7 -22 12 -3 8 31 20 38 26 16 3 -14 1 -19 -6 -14 -7
4 -6 -1 2 -11 14 -16 15 -16 26 5 8 14 15 18 19 10 4 -6 3 -11 -3 -11 -7 0 -6
-10 1 -30 13 -38 31 -51 22 -16 -5 23 -3 26 19 24 14 -1 23 -6 20 -11 -8 -13
28 -35 50 -29 17 4 19 1 15 -16 -4 -12 -2 -24 2 -27 16 -10 17 30 1 48 -10 12
-11 21 -4 28 8 8 13 5 18 -10 7 -23 21 -28 27 -9 3 9 6 9 12 0 4 -7 2 -12 -3
-12 -6 0 -11 -4 -11 -10 0 -15 28 0 33 18 3 12 5 10 6 -5 0 -13 -3 -23 -9 -23
-6 0 -5 -10 2 -25 10 -23 28 -26 28 -4 0 6 -5 7 -12 3 -7 -4 -8 -3 -4 5 11 17
36 -5 36 -32 0 -11 3 -18 6 -14 4 3 13 -1 21 -9 9 -8 22 -13 29 -10 8 3 14 1
14 -4 0 -6 -6 -10 -13 -10 -9 0 -11 -12 -9 -39 3 -31 -7 -61 -53 -154 -54
-109 -125 -203 -125 -165 0 9 4 19 9 22 10 7 23 59 25 101 2 31 -40 108 -54
100 -5 -3 -13 9 -19 25 -13 38 -23 39 -15 3 l6 -28 -26 30 c-20 23 -25 26 -26
13 0 -31 -18 -20 -31 20 -7 20 -19 42 -28 49 -13 10 -17 8 -23 -10 l-6 -22 -1
22 c-1 14 -7 20 -18 19 -11 -2 -20 5 -24 18 -3 12 -12 20 -20 18 -7 -2 -19 5
-26 14 -9 13 -13 14 -13 4 0 -8 -14 -1 -33 18 -31 30 -55 43 -43 23 7 -10 -20
-9 -30 2 -13 13 -27 7 -15 -7 9 -11 6 -13 -13 -11 -13 2 -33 6 -45 10 -16 5
-21 2 -21 -11 0 -14 -3 -15 -12 -6 -20 20 -28 13 -17 -15 l10 -28 -25 24 c-17
16 -33 22 -51 19 -16 -4 -24 -1 -22 6 2 6 17 13 33 16 19 4 25 8 17 13 -7 5
-13 6 -13 2 0 -3 -9 -1 -20 5 -14 8 -19 17 -15 30 9 29 -16 36 -37 9 -16 -20
-17 -21 -12 -4 l6 20 -19 -20 c-19 -21 -74 -29 -66 -9 5 13 -26 28 -36 18 -3
-4 0 -9 7 -11 6 -3 10 -9 7 -14 -8 -12 14 -51 25 -44 6 4 7 -1 3 -11 -6 -15
-8 -15 -24 4 -17 22 -36 31 -24 12 4 -6 1 -17 -5 -25 -10 -12 -10 -18 0 -30
11 -13 10 -14 -2 -10 -10 4 -17 -1 -21 -16 -6 -23 -7 -22 -37 9 -16 17 -30 28
-30 23 0 -4 9 -16 21 -27 14 -13 19 -27 16 -47 -2 -15 1 -30 6 -34 5 -3 3 -9
-4 -14 -10 -6 -10 -13 1 -36 7 -15 12 -37 11 -49 -1 -11 3 -32 8 -47 10 -26 9
-27 -10 -17 -15 9 -19 18 -16 40 4 19 -1 35 -15 49 -10 12 -16 26 -13 31 3 6
1 10 -6 10 -6 0 -9 8 -6 20 3 13 1 18 -5 13 -6 -3 -17 2 -25 12 -7 11 -13 13
-13 7 0 -29 -20 -7 -40 46 -40 100 -88 136 -141 105 -34 -20 -44 -49 -35 -96
7 -35 23 -56 79 -104 46 -41 78 -42 106 -5 l21 27 -2 -30 c-2 -20 -12 -34 -29
-44 -24 -14 -31 -13 -69 4 -23 10 -52 31 -65 47 -16 19 -33 28 -54 28 -38 0
-41 -6 -33 -66 6 -38 12 -49 25 -48 9 1 17 -5 17 -13 0 -8 5 -11 10 -8 6 3 10
1 10 -5 0 -6 10 -14 23 -19 12 -5 32 -26 42 -47 11 -22 22 -41 25 -44 8 -8 44
-75 42 -77 -1 -2 1 -16 4 -33 7 -33 18 -44 52 -53 45 -11 80 73 48 116 -11 14
-11 24 -2 52 8 21 10 56 5 92 -3 32 -5 60 -3 61 1 2 10 -10 19 -28 12 -24 15
-45 10 -85 -7 -56 5 -95 29 -95 9 0 12 -7 9 -20 -8 -31 5 -68 28 -81 24 -12
41 3 32 28 -3 7 0 13 7 13 12 0 10 -15 -5 -52 -5 -14 -2 -18 15 -18 11 0 18
-4 15 -10 -3 -5 -1 -10 4 -10 12 0 14 10 12 50 -1 24 -1 24 11 5 11 -18 13
-17 19 20 4 22 3 44 -3 50 -6 6 -7 3 -3 -10 5 -15 4 -16 -3 -6 -5 7 -7 22 -5
32 3 10 1 19 -5 19 -5 0 -13 25 -17 56 -9 76 -28 57 -32 -31 -3 -77 -9 -91
-29 -70 -14 13 -13 18 4 42 20 29 21 46 7 97 -7 25 -5 28 8 23 22 -8 27 3 17
43 l-8 35 -2 -35 -1 -35 -16 33 c-9 17 -21 32 -26 32 -4 0 -1 7 8 16 11 12 13
20 5 29 -8 9 -6 14 5 19 17 6 21 66 4 66 -5 0 -7 5 -3 11 4 7 9 8 17 0 7 -7
18 -6 37 4 21 11 26 20 23 38 -4 22 -2 24 26 21 17 -2 31 1 31 6 0 6 21 10 46
10 39 0 45 -3 40 -16 -4 -10 1 -25 10 -35 16 -17 15 -18 -9 -6 -26 12 -30 25
-12 40 6 5 1 6 -10 2 -11 -4 -25 -8 -32 -9 -20 -3 -28 -16 -10 -16 21 0 22
-14 2 -34 -8 -8 -15 -19 -15 -24 0 -4 -12 -7 -27 -5 l-28 5 -3 -86 c-4 -95 -7
-90 66 -86 32 1 47 -3 57 -17 12 -16 11 -19 -8 -25 -16 -4 -9 -6 21 -7 30 -1
42 -5 42 -16 0 -8 6 -14 13 -12 6 1 11 -3 10 -9 -1 -7 10 -15 24 -19 21 -5 24
-8 12 -16 -11 -7 -10 -9 5 -9 11 0 28 -7 38 -17 30 -27 34 -5 5 25 -15 16 -24
32 -20 37 5 4 -1 5 -12 1 -11 -4 -16 -4 -12 0 4 4 0 16 -10 26 -13 14 -13 18
-2 18 8 1 -2 14 -21 32 -20 17 -25 25 -13 19 30 -15 36 -14 29 5 -5 12 -2 15
10 10 8 -3 19 -6 24 -6 5 0 16 -20 26 -45 15 -41 53 -80 103 -110 11 -6 13 -4
8 11 -7 18 -7 18 8 0 8 -11 15 -23 15 -28 0 -4 9 -8 20 -8 14 0 18 5 14 18 -5
16 -5 16 6 0 6 -10 17 -18 25 -18 7 0 16 -6 18 -12 4 -10 6 -10 6 0 1 7 6 10
13 6 6 -4 28 -6 50 -6 21 1 38 -3 38 -8 0 -6 7 -10 16 -10 9 0 12 5 8 12 -4 7
-3 8 5 4 6 -4 18 -20 26 -36 10 -19 20 -27 30 -24 13 5 14 2 5 -20 -6 -17 -6
-26 0 -26 6 0 10 6 10 14 0 7 7 19 15 26 8 7 15 21 15 32 0 33 72 190 128 278
66 103 61 98 72 80 5 -8 11 -12 14 -9 7 6 24 124 26 174 4 87 1 105 -16 98
-13 -5 -15 0 -13 24 2 17 -3 38 -10 47 -10 12 -11 19 -2 29 11 15 -3 37 -24
37 -6 0 -21 9 -33 21 -12 11 -26 18 -30 16 -8 -6 -33 19 -26 25 2 3 -2 18 -11
34 -12 24 -15 25 -15 9 l-1 -20 -14 20 c-8 11 -21 27 -28 35 -11 11 -13 27 -7
63 4 26 3 47 -1 47 -11 0 -31 -75 -29 -108 3 -45 1 -50 -32 -84 l-32 -33 -7
35 c-5 23 -3 40 5 50 13 15 28 60 20 60 -3 0 -9 -12 -15 -26 -5 -15 -12 -25
-15 -22 -2 3 1 18 7 34 7 16 11 35 10 41 -1 7 3 22 9 33 7 13 7 20 0 20 -5 0
-10 8 -10 18 0 25 -43 44 -72 33 -13 -4 -36 -11 -53 -15 l-30 -7 28 26 c27 26
38 47 13 26 -11 -9 -12 -6 -8 14 2 15 0 25 -7 25 -6 0 -11 7 -11 15 0 9 -6 15
-12 14 -35 -4 -46 2 -41 21 4 15 0 20 -16 20 -17 0 -19 4 -12 23 4 12 6 28 4
35 -8 23 -34 12 -45 -19 -7 -21 -14 -27 -21 -20 -7 7 -7 18 1 36 7 15 8 24 3
21 -11 -7 -23 22 -15 35 3 5 2 14 -2 20 -4 7 -15 1 -30 -16 -28 -33 -30 -48
-9 -65 19 -16 19 -54 0 -70 -12 -10 -14 -6 -10 30 3 36 1 43 -16 47 -14 4 -18
11 -14 24 4 11 2 19 -4 19 -6 0 -11 -5 -11 -10 0 -20 -55 -4 -57 16 -2 10 0
13 3 7 3 -7 10 -13 15 -13 6 0 8 4 4 9 -3 6 -1 29 4 53 10 43 5 70 -6 30 -4
-18 -8 -20 -20 -11 -8 7 -12 18 -9 26 3 7 1 13 -3 13 -5 0 -17 3 -26 6 -17 7
-18 -15 0 -28 5 -4 6 -10 2 -15 -14 -13 -27 21 -21 51 5 22 3 27 -7 20 -42
-27 -109 -35 -109 -13 0 5 6 8 13 7 6 -2 10 4 8 12 -2 8 -3 23 -3 33 0 9 -3
15 -9 12 -22 -14 -38 84 -20 128 14 36 14 37 -4 37 -8 0 -15 -7 -15 -15 0 -25
-18 -17 -27 12 l-10 28 -7 -29z m-366 -176 c8 -5 11 -10 5 -10 -5 0 -21 10
-35 21 -24 20 -5 13 30 -11z m198 4 c-9 -20 -9 -27 1 -33 8 -6 10 -20 6 -45
-5 -24 -3 -36 4 -36 6 0 11 -4 11 -10 0 -5 -7 -7 -15 -4 -8 4 -15 2 -15 -3 0
-5 -8 -9 -18 -9 -10 0 -18 8 -18 18 0 21 7 23 23 7 8 -8 11 -1 11 25 0 35 0
35 -17 15 l-17 -21 -1 21 c-1 12 2 21 6 21 4 0 14 18 21 40 7 22 17 40 21 40
5 0 3 -12 -3 -26z m208 -49 c-3 -9 -10 -13 -16 -10 -6 4 -5 11 3 20 15 16 22
11 13 -10z m-653 -2 c-7 -2 -19 -2 -25 0 -7 3 -2 5 12 5 14 0 19 -2 13 -5z
m674 -18 c-4 -8 -11 -15 -17 -15 -6 0 -6 7 2 20 14 22 24 19 15 -5z m-107 7
c0 -16 -52 -34 -64 -22 -8 8 -7 10 5 5 9 -3 22 1 29 10 14 16 30 20 30 7z m40
-2 c0 -5 -4 -10 -10 -10 -5 0 -10 5 -10 10 0 6 5 10 10 10 6 0 10 -4 10 -10z
m-108 -34 c10 -7 15 -16 12 -19 -7 -7 -44 14 -44 25 0 12 13 9 32 -6z m-527
-56 c3 -5 1 -10 -4 -10 -6 0 -11 5 -11 10 0 6 2 10 4 10 3 0 8 -4 11 -10z
m399 -5 c3 -8 1 -15 -4 -15 -6 0 -10 7 -10 15 0 8 2 15 4 15 2 0 6 -7 10 -15z
m86 -5 c0 -5 -5 -10 -11 -10 -6 0 -9 -9 -6 -19 3 -13 0 -18 -8 -15 -7 3 -16 1
-20 -5 -3 -6 -14 -11 -23 -11 -12 1 -9 5 10 15 15 8 29 24 33 35 7 21 25 28
25 10z m-50 -15 c-7 -9 -15 -13 -17 -11 -7 7 7 26 19 26 6 0 6 -6 -2 -15z m95
6 c3 -5 1 -12 -5 -16 -5 -3 -10 1 -10 9 0 18 6 21 15 7z m325 -1 c0 -5 -7 -10
-16 -10 -8 0 -12 5 -9 10 3 6 10 10 16 10 5 0 9 -4 9 -10z m-270 -14 c0 -3 -4
-8 -10 -11 -5 -3 -10 -1 -10 4 0 6 5 11 10 11 6 0 10 -2 10 -4z m262 -24 c-6
-2 -12 -12 -12 -23 0 -12 -5 -16 -15 -13 -15 6 -21 35 -9 46 3 3 15 3 27 0 12
-3 16 -7 9 -10z m-292 -12 c0 -11 -4 -20 -9 -20 -5 0 -7 9 -4 20 3 11 7 20 9
20 2 0 4 -9 4 -20z m482 -28 c-4 -13 -7 -12 -12 4 -4 10 -5 23 -2 28 7 13 21
-16 14 -32z m-161 -45 c-13 -13 -15 15 -3 53 7 24 7 23 10 -9 2 -18 -1 -38 -7
-44z m49 58 c0 -8 -2 -15 -4 -15 -2 0 -6 7 -10 15 -3 8 -1 15 4 15 6 0 10 -7
10 -15z m-1031 1 c-2 -2 -22 -6 -44 -10 -29 -5 -36 -4 -25 3 13 10 79 16 69 7z
m551 -6 c0 -5 -5 -10 -11 -10 -5 0 -7 5 -4 10 3 6 8 10 11 10 2 0 4 -4 4 -10z
m24 -31 c-16 -18 -18 -45 -4 -54 16 -10 11 -28 -6 -21 -8 3 -12 2 -9 -4 3 -6
1 -10 -5 -10 -6 0 -10 8 -9 18 3 34 -2 37 -21 12 -19 -24 -19 -24 -13 -2 4 18
1 22 -16 22 -19 0 -20 2 -9 20 15 24 25 26 30 4 3 -14 7 -13 30 6 15 11 27 24
27 28 -3 19 2 25 11 12 6 -10 4 -20 -6 -31z m166 21 c0 -5 -2 -10 -4 -10 -3 0
-8 5 -11 10 -3 6 -1 10 4 10 6 0 11 -4 11 -10z m-50 -12 c0 6 5 12 11 12 8 0
8 -5 -1 -15 -17 -20 -30 -19 -30 3 0 14 2 15 10 2 6 -10 10 -11 10 -2z m-653
-22 c-3 -7 0 -19 6 -25 16 -16 -6 -14 -29 4 -17 13 -17 14 -1 15 9 0 17 5 17
10 0 6 3 10 6 10 3 0 4 -6 1 -14z m273 -6 c8 -5 12 -12 8 -15 -10 -10 -49 5
-43 16 8 11 16 11 35 -1z m300 -6 c0 -8 -4 -12 -10 -9 -5 3 -10 10 -10 16 0 5
5 9 10 9 6 0 10 -7 10 -16z m-730 -4 c0 -5 -10 -10 -22 -9 -22 0 -22 1 -3 9
11 5 21 9 23 9 1 1 2 -3 2 -9z m850 -10 c0 -5 -5 -10 -11 -10 -5 0 -7 5 -4 10
3 6 8 10 11 10 2 0 4 -4 4 -10z m220 -5 c0 -9 -40 -11 -51 -3 -11 8 -10 9 4 4
9 -3 17 -1 17 4 0 5 7 7 15 4 8 -4 15 -7 15 -9z m26 -43 c-11 -10 -15 4 -8 28
l7 25 3 -23 c2 -13 1 -26 -2 -30z m-686 -2 c0 -17 -16 -11 -41 16 l-24 27 33
-17 c17 -9 32 -21 32 -26z m410 24 c0 -2 -7 -4 -15 -4 -8 0 -15 4 -15 10 0 5
7 7 15 4 8 -4 15 -8 15 -10z m50 6 c0 -5 -5 -10 -11 -10 -5 0 -7 5 -4 10 3 6
8 10 11 10 2 0 4 -4 4 -10z m-670 -19 c0 -3 -17 -6 -38 -5 -20 0 -46 -7 -56
-15 -13 -11 -17 -12 -11 -2 6 10 2 12 -14 7 -11 -3 -30 -9 -41 -12 -11 -3 -20
-1 -20 5 0 12 27 20 83 25 21 2 40 6 43 8 6 7 54 -3 54 -11z m110 9 c0 -5 -11
-10 -24 -10 -14 0 -28 5 -31 10 -4 6 7 10 24 10 17 0 31 -4 31 -10z m1055 -9
c3 -5 1 -12 -5 -16 -5 -3 -10 1 -10 9 0 18 6 21 15 7z m-765 -10 c0 -5 -7 -12
-16 -15 -14 -5 -15 -4 -4 9 14 17 20 19 20 6z m164 -6 c3 -8 1 -15 -4 -15 -13
0 -12 -11 0 -30 9 -13 11 -13 20 0 8 12 10 11 10 -7 0 -23 -16 -30 -35 -15
-13 9 -19 82 -7 82 5 0 12 -7 16 -15z m70 -33 c11 -66 8 -81 -10 -47 -8 16
-13 37 -11 47 3 10 1 21 -4 24 -14 8 -10 24 5 18 7 -3 16 -22 20 -42z m-834
28 c-8 -5 -24 -10 -35 -10 -17 0 -17 2 -5 10 8 5 24 10 35 10 17 0 17 -2 5
-10z m468 2 c9 -7 10 -15 3 -35 -11 -29 -27 -35 -34 -14 -2 6 3 17 12 24 9 6
12 15 7 20 -5 4 -11 2 -13 -4 -3 -7 -9 -13 -15 -13 -6 0 -6 6 2 15 14 17 20
18 38 7z m572 -37 c8 -5 8 -11 -1 -21 -19 -23 -26 -16 -26 28 0 33 2 38 8 21
4 -11 13 -24 19 -28z m366 26 c12 10 13 9 8 -4 -6 -18 -31 -30 -45 -22 -5 3
-3 15 4 26 10 16 13 17 15 4 3 -13 7 -14 18 -4z m-1121 -11 c3 -5 2 -10 -4
-10 -5 0 -13 5 -16 10 -3 6 -2 10 4 10 5 0 13 -4 16 -10z m-125 -25 c0 -9 -6
-12 -15 -9 -8 4 -15 1 -15 -5 0 -6 -6 -11 -14 -11 -12 0 -33 -38 -27 -48 1 -2
-8 -11 -20 -21 -23 -18 -34 -51 -18 -51 4 0 13 9 19 19 5 11 19 23 30 26 11 3
20 11 20 16 0 6 -4 7 -10 4 -20 -13 -9 12 15 33 31 27 39 28 25 3 -14 -28 -13
-33 9 -22 10 6 21 7 25 4 4 -4 18 6 31 22 21 26 23 27 18 8 -6 -26 14 -32 35
-11 9 9 12 7 12 -12 0 -21 -60 -100 -75 -100 -11 0 -4 19 11 35 17 17 16 29
-2 17 -5 -4 -20 -22 -33 -39 -12 -18 -27 -33 -33 -33 -6 0 -6 6 2 15 8 10 9
15 2 15 -6 0 -16 -9 -22 -21 -7 -11 -14 -18 -17 -15 -3 3 0 12 7 21 7 8 9 15
4 15 -5 0 5 8 21 18 34 21 62 52 47 52 -5 0 -35 -25 -66 -56 -31 -31 -56 -52
-56 -47 0 5 6 15 13 22 6 7 -3 4 -20 -6 -18 -10 -33 -25 -34 -33 -1 -13 -2
-13 -5 0 -6 19 -65 44 -74 30 -6 -10 -50 -2 -50 9 0 4 6 13 13 20 10 12 8 13
-8 6 -44 -16 -58 -18 -51 -7 4 7 14 12 22 12 8 0 14 4 14 8 0 17 -13 21 -32
11 -10 -5 -24 -7 -31 -2 -8 5 -3 9 13 13 14 4 24 12 23 18 -2 7 3 12 10 12 8
0 24 9 37 20 13 11 30 20 39 20 9 0 3 -9 -16 -22 -42 -30 -42 -43 0 -22 27 14
30 15 19 2 -10 -13 -10 -17 3 -22 9 -3 15 0 15 8 0 17 45 37 67 29 11 -4 14
-3 9 5 -4 7 -17 12 -29 12 -16 0 -18 3 -9 12 8 8 15 8 26 -1 12 -11 21 -9 43
6 67 44 83 47 83 18z m735 15 c3 -5 1 -10 -4 -10 -6 0 -11 5 -11 10 0 6 2 10
4 10 3 0 8 -4 11 -10z m-553 -17 c10 -9 18 -11 18 -5 0 6 7 9 15 6 8 -4 15
-15 15 -25 0 -14 -8 -19 -27 -20 -17 -1 -21 -3 -10 -6 28 -7 20 -22 -10 -18
-16 2 -33 4 -40 4 -7 1 0 13 14 27 26 26 26 27 8 40 -10 8 -15 14 -10 14 5 0
17 -7 27 -17z m268 -13 c-8 -5 -17 -7 -19 -4 -3 3 1 9 9 14 8 5 17 7 19 4 3
-3 -1 -9 -9 -14z m60 0 c0 -5 7 -7 15 -4 9 4 15 0 15 -10 0 -22 -13 -20 -35 4
-10 11 -13 20 -7 20 7 0 12 -4 12 -10z m-105 -10 c3 -5 1 -10 -4 -10 -6 0 -11
5 -11 10 0 6 2 10 4 10 3 0 8 -4 11 -10z m-1220 -10 c-3 -5 -12 -10 -18 -10
-7 0 -6 4 3 10 19 12 23 12 15 0z m1522 -12 c-3 -8 -6 -5 -6 6 -1 11 2 17 5
13 3 -3 4 -12 1 -19z m-92 2 c3 -5 1 -10 -4 -10 -6 0 -11 5 -11 10 0 6 2 10 4
10 3 0 8 -4 11 -10z m-124 -15 c10 6 11 5 4 -3 -6 -6 -21 -9 -34 -5 -16 4 -19
8 -10 14 8 4 16 3 20 -3 4 -6 13 -7 20 -3z m83 -5 c-10 -4 -21 -6 -24 -3 -8 7
24 22 34 16 5 -4 1 -10 -10 -13z m375 8 c-1 -7 -4 -24 -8 -38 l-7 -25 -12 23
c-8 14 -9 22 -2 22 5 0 10 7 10 15 0 8 5 15 10 15 6 0 10 -6 9 -12z m272 -21
c-10 -9 -11 -8 -5 6 3 10 9 15 12 12 3 -3 0 -11 -7 -18z m-901 -7 c0 -4 -13
-7 -30 -8 -30 -1 -41 13 -17 21 16 5 47 -3 47 -13z m349 10 c-6 -5 -19 -6 -27
-2 -10 3 -13 1 -8 -6 4 -7 16 -12 27 -12 11 0 19 -7 19 -16 0 -11 5 -14 18 -9
11 4 14 3 7 -4 -7 -7 -29 0 -70 21 -33 17 -50 28 -38 25 13 -3 25 -2 28 3 2 4
16 8 31 8 17 0 22 -3 13 -8z m51 0 c0 -5 -2 -10 -4 -10 -3 0 -8 5 -11 10 -3 6
-1 10 4 10 6 0 11 -4 11 -10z m90 -16 c0 -8 5 -14 10 -14 6 0 10 -7 10 -15 0
-8 6 -15 13 -16 9 0 9 -2 0 -5 -7 -3 -9 -13 -5 -22 5 -15 4 -15 -12 1 -11 10
-20 32 -22 48 -2 17 -7 35 -10 41 -4 7 -2 8 4 4 7 -4 12 -14 12 -22z m-422 2
c-7 -8 -15 -12 -17 -11 -5 6 10 25 20 25 5 0 4 -6 -3 -14z m72 -6 c0 -5 -5
-10 -11 -10 -5 0 -7 5 -4 10 3 6 8 10 11 10 2 0 4 -4 4 -10z m33 -10 c-3 -11
-9 -17 -15 -14 -5 3 -4 12 3 20 16 19 18 18 12 -6z m122 -8 c-3 -3 -11 0 -18
7 -9 10 -8 11 6 5 10 -3 15 -9 12 -12z m-77 -23 c-3 -8 -7 -3 -11 10 -4 17 -3
21 5 13 5 -5 8 -16 6 -23z m442 -9 c0 -13 -1 -13 -10 0 -5 8 -10 22 -10 30 0
13 1 13 10 0 5 -8 10 -22 10 -30z m211 7 c-6 -6 -11 -26 -11 -44 0 -18 -4 -33
-10 -33 -5 0 -10 -7 -10 -17 0 -22 -6 -14 -14 19 -3 16 -1 32 7 40 7 7 18 27
26 43 8 19 15 25 18 17 3 -8 0 -19 -6 -25z m-1726 13 c3 -5 12 -7 19 -4 10 4
12 -2 9 -20 -3 -15 -12 -26 -21 -26 -16 0 -41 28 -42 48 0 14 26 16 35 2z
m849 -6 c8 -22 8 -24 -6 -24 -6 0 -8 3 -5 7 4 3 2 12 -4 20 -7 8 -8 13 -1 13
5 0 13 -7 16 -16z m736 2 c0 -3 -4 -8 -10 -11 -5 -3 -10 -1 -10 4 0 6 5 11 10
11 6 0 10 -2 10 -4z m-553 -21 c0 -8 -4 -12 -9 -9 -5 3 -6 10 -3 15 9 13 12
11 12 -6z m256 -28 c6 -22 6 -22 -14 2 -22 27 -26 49 -5 32 8 -6 16 -22 19
-34z m-1223 12 c0 -5 -4 -9 -10 -9 -5 0 -10 7 -10 16 0 8 5 12 10 9 6 -3 10
-10 10 -16z m872 -1 c-7 -7 -12 -8 -12 -2 0 6 3 14 7 17 3 4 9 5 12 2 2 -3 -1
-11 -7 -17z m328 -26 c24 -26 38 -41 30 -34 -8 6 -22 12 -33 12 -10 0 -16 4
-13 9 3 4 -3 16 -14 26 -17 15 -27 35 -17 35 1 0 22 -21 47 -48z m-600 18 c0
-5 -5 -10 -11 -10 -5 0 -7 5 -4 10 3 6 8 10 11 10 2 0 4 -4 4 -10z m225 -10
c-3 -5 -12 -10 -18 -10 -7 0 -6 4 3 10 19 12 23 12 15 0z m-810 -10 c3 -5 3
-15 -1 -21 -6 -11 -23 6 -24 24 0 10 18 9 25 -3z m230 -10 c11 -17 -5 -32 -21
-19 -7 6 -11 15 -8 20 7 12 21 11 29 -1z m195 -39 c0 -14 -38 -20 -43 -7 -3 7
5 13 19 14 13 1 24 -2 24 -7z m-115 -11 c3 -5 2 -10 -4 -10 -5 0 -13 5 -16 10
-3 6 -2 10 4 10 5 0 13 -4 16 -10z m1305 -56 c4 -29 7 -34 12 -21 5 10 13 15
19 11 6 -3 15 0 20 7 7 11 9 9 9 -6 0 -17 2 -17 10 -5 7 10 10 11 10 2 0 -7
-13 -26 -30 -44 -22 -22 -30 -26 -30 -14 0 9 -4 16 -9 16 -10 0 -34 55 -36 82
-3 36 20 11 25 -28z m290 26 c0 -5 -4 -10 -10 -10 -5 0 -10 5 -10 10 0 6 5 10
10 10 6 0 10 -4 10 -10z m-360 -46 c0 -8 -4 -12 -10 -9 -5 3 -10 10 -10 16 0
5 5 9 10 9 6 0 10 -7 10 -16z m-360 -204 c0 -5 -7 -10 -16 -10 -8 0 -12 5 -9
10 3 6 10 10 16 10 5 0 9 -4 9 -10z m65 0 c-3 -5 -12 -10 -18 -10 -7 0 -6 4 3
10 19 12 23 12 15 0z m-395 -110 c6 -12 7 -27 2 -36 -7 -13 -11 -12 -26 5 -18
20 -16 51 3 51 6 0 15 -9 21 -20z m530 -2 c0 -6 7 -20 17 -30 18 -21 -1 -26
-20 -5 -14 15 -18 47 -6 47 5 0 9 -5 9 -12z m-390 -112 c0 -5 -7 -1 -15 10 -8
10 -14 24 -14 29 0 6 6 1 14 -9 8 -11 15 -24 15 -30z m796 -40 c27 -20 13 -29
-19 -13 -15 8 -24 17 -20 20 9 10 17 9 39 -7z m-341 -24 c5 -14 4 -14 -13 1
-10 9 -22 14 -27 10 -4 -5 -5 -3 -1 4 8 15 32 7 41 -15z m376 -35 c-10 -9 -11
-8 -5 6 3 10 9 15 12 12 3 -3 0 -11 -7 -18z m-2 -48 c5 8 11 9 15 3 3 -5 -2
-19 -12 -31 -21 -26 -44 -15 -35 18 4 17 8 19 14 9 8 -11 10 -11 18 1z m-743
-29 c0 -11 -4 -20 -8 -20 -4 0 -8 2 -8 4 0 2 -3 11 -6 20 -4 10 -1 16 8 16 7
0 14 -9 14 -20z m1 -62 c-3 -8 -6 -5 -6 6 -1 11 2 17 5 13 3 -3 4 -12 1 -19z
m790 -30 c-3 -8 -6 -5 -6 6 -1 11 2 17 5 13 3 -3 4 -12 1 -19z"/>
<path d="M3180 4985 c-7 -9 -11 -18 -8 -20 3 -3 11 1 18 10 7 9 11 18 8 20 -3
3 -11 -1 -18 -10z"/>
<path d="M3095 4950 c-3 -5 1 -10 10 -10 9 0 13 5 10 10 -3 6 -8 10 -10 10 -2
0 -7 -4 -10 -10z"/>
<path d="M3010 4920 c0 -5 4 -10 9 -10 6 0 13 5 16 10 3 6 -1 10 -9 10 -9 0
-16 -4 -16 -10z"/>
<path d="M2935 5600 c8 -40 20 -57 30 -41 3 7 -3 26 -15 44 l-21 32 6 -35z"/>
<path d="M2986 5621 c-4 -7 -5 -15 -2 -18 9 -9 19 4 14 18 -4 11 -6 11 -12 0z"/>
<path d="M3767 5623 c-4 -3 -7 -20 -7 -37 0 -36 18 -24 26 17 4 26 -5 35 -19
20z"/>
<path d="M3837 5606 c-4 -10 -5 -21 -2 -24 9 -9 17 6 13 25 -3 17 -4 17 -11
-1z"/>
<path d="M2690 5597 c0 -8 -3 -24 -7 -34 -3 -10 -2 -15 2 -10 5 4 17 0 27 -10
17 -15 18 -15 18 0 0 10 -4 17 -10 17 -5 0 -7 6 -4 13 3 8 -2 20 -11 27 -12
10 -15 10 -15 -3z"/>
<path d="M2726 5595 c4 -8 8 -15 10 -15 2 0 4 7 4 15 0 8 -4 15 -10 15 -5 0
-7 -7 -4 -15z"/>
<path d="M3632 5588 c-16 -16 -15 -28 3 -28 8 0 15 9 15 20 0 23 -2 24 -18 8z"/>
<path d="M2986 5566 c3 -9 1 -16 -5 -16 -18 0 20 -47 48 -60 22 -10 21 -8 -6
21 -18 17 -29 37 -27 44 3 7 1 16 -5 20 -7 3 -8 0 -5 -9z"/>
<path d="M4072 5538 c3 -27 1 -52 -6 -60 -6 -7 -1 -4 12 6 21 18 32 43 14 32
-5 -3 -9 8 -10 25 0 17 -4 34 -8 38 -4 3 -4 -15 -2 -41z"/>
<path d="M3600 5550 c0 -5 5 -10 11 -10 5 0 7 5 4 10 -3 6 -8 10 -11 10 -2 0
-4 -4 -4 -10z"/>
<path d="M3716 5545 c-3 -8 -3 -23 0 -32 5 -15 4 -16 -5 -3 -10 13 -12 13 -21
0 -6 -8 -8 -23 -6 -33 2 -10 -4 -22 -15 -27 -19 -11 -27 -40 -10 -40 6 0 16 9
24 20 8 11 17 17 20 14 3 -4 0 -16 -8 -28 -17 -23 -19 -36 -7 -36 13 0 37 51
34 71 -2 10 2 27 7 38 7 12 7 22 2 25 -5 3 -7 15 -4 26 6 23 -2 27 -11 5z"/>
<path d="M3770 5539 c0 -5 -4 -7 -10 -4 -6 4 -10 -9 -9 -32 1 -37 1 -37 9 -10
5 16 14 35 21 43 8 10 8 14 0 14 -6 0 -11 -5 -11 -11z"/>
<path d="M2750 5532 c0 -7 -8 -12 -17 -12 -15 0 -16 -2 -3 -10 10 -6 17 -4 23
6 5 9 6 18 3 21 -3 4 -6 1 -6 -5z"/>
<path d="M3630 5520 c0 -19 3 -21 12 -12 9 9 9 15 0 24 -9 9 -12 7 -12 -12z"/>
<path d="M3987 5529 c7 -7 15 -10 18 -7 3 3 -2 9 -12 12 -14 6 -15 5 -6 -5z"/>
<path d="M2804 5511 c1 -14 8 -27 14 -29 16 -5 15 10 -3 34 -14 18 -15 18 -11
-5z"/>
<path d="M2604 5504 c3 -9 6 -18 6 -20 0 -2 4 -4 9 -4 5 0 7 9 4 20 -3 11 -10
20 -15 20 -6 0 -7 -7 -4 -16z"/>
<path d="M4176 5495 c-9 -26 -7 -32 5 -12 6 10 9 21 6 23 -2 3 -7 -2 -11 -11z"/>
<path d="M2570 5490 c0 -5 5 -10 10 -10 6 0 10 5 10 10 0 6 -4 10 -10 10 -5 0
-10 -4 -10 -10z"/>
<path d="M2730 5470 c6 -11 13 -20 16 -20 2 0 0 9 -6 20 -6 11 -13 20 -16 20
-2 0 0 -9 6 -20z"/>
<path d="M2750 5482 c0 -4 9 -13 20 -20 27 -17 26 -35 -2 -27 -18 5 -20 4 -8
-4 18 -13 50 -14 50 -2 0 13 -40 61 -51 61 -5 0 -9 -3 -9 -8z"/>
<path d="M2870 5480 c0 -5 5 -10 11 -10 5 0 7 5 4 10 -3 6 -8 10 -11 10 -2 0
-4 -4 -4 -10z"/>
<path d="M4230 5479 c0 -5 5 -7 10 -4 6 3 10 8 10 11 0 2 -4 4 -10 4 -5 0 -10
-5 -10 -11z"/>
<path d="M3055 5460 c3 -5 11 -10 16 -10 6 0 7 5 4 10 -3 6 -11 10 -16 10 -6
0 -7 -4 -4 -10z"/>
<path d="M4115 5460 c-3 -5 1 -10 9 -10 8 0 18 5 21 10 3 6 -1 10 -9 10 -8 0
-18 -4 -21 -10z"/>
<path d="M4261 5454 c0 -11 3 -14 6 -6 3 7 2 16 -1 19 -3 4 -6 -2 -5 -13z"/>
<path d="M2690 5456 c0 -2 7 -7 16 -10 8 -3 12 -2 9 4 -6 10 -25 14 -25 6z"/>
<path d="M3157 5449 c7 -7 15 -10 18 -7 3 3 -2 9 -12 12 -14 6 -15 5 -6 -5z"/>
<path d="M2729 5413 c12 -24 31 -39 31 -25 0 5 -10 17 -21 28 -22 19 -22 19
-10 -3z"/>
<path d="M2666 5385 c4 -8 11 -15 16 -15 6 0 5 6 -2 15 -7 8 -14 15 -16 15 -2
0 -1 -7 2 -15z"/>
<path d="M4291 5364 c0 -11 3 -14 6 -6 3 7 2 16 -1 19 -3 4 -6 -2 -5 -13z"/>
<path d="M2898 5342 c9 -10 19 -17 21 -16 6 5 -20 34 -30 34 -5 0 -1 -8 9 -18z"/>
<path d="M2445 5330 c-3 -5 1 -10 9 -10 8 0 18 5 21 10 3 6 -1 10 -9 10 -8 0
-18 -4 -21 -10z"/>
<path d="M4262 5289 c-2 -19 2 -28 8 -24 12 7 14 55 2 55 -4 0 -9 -14 -10 -31z"/>
<path d="M2413 5303 c10 -9 77 -10 71 -1 -3 4 -21 8 -41 8 -20 0 -33 -3 -30
-7z"/>
<path d="M3004 5282 c4 -6 -2 -15 -11 -21 -17 -10 -16 -11 5 -17 12 -3 22 -10
22 -15 0 -5 8 -9 18 -8 10 0 12 3 5 6 -21 8 -14 25 7 18 22 -7 27 7 8 23 -20
15 -62 26 -54 14z"/>
<path d="M2368 5253 c7 -3 16 -2 19 1 4 3 -2 6 -13 5 -11 0 -14 -3 -6 -6z"/>
<path d="M2365 5226 c-21 -7 -29 -17 -27 -28 2 -10 -1 -18 -6 -18 -5 0 -12
-10 -15 -21 -5 -20 -3 -21 29 -15 97 17 99 17 137 -7 36 -22 38 -25 23 -40
-10 -10 -12 -18 -6 -22 5 -3 10 -3 10 1 0 4 8 0 18 -9 15 -13 21 -14 48 -2 43
18 50 33 22 44 -17 7 -19 10 -5 10 9 1 17 8 17 16 0 13 -19 20 -44 16 -5 -1
-4 4 3 12 27 34 -65 69 -123 48 -15 -6 -35 -11 -44 -10 -9 0 -3 6 15 12 17 7
35 15 39 20 11 11 -57 6 -91 -7z"/>
<path d="M2853 5183 c9 -2 17 -11 17 -19 0 -8 10 -14 25 -14 23 0 24 2 15 20
-8 14 -20 20 -43 19 -18 -1 -24 -3 -14 -6z"/>
<path d="M3620 5150 c0 -6 7 -10 15 -10 8 0 15 2 15 4 0 2 -7 6 -15 10 -8 3
-15 1 -15 -4z"/>
<path d="M2655 5120 c-3 -5 -1 -10 4 -10 6 0 11 5 11 10 0 6 -2 10 -4 10 -3 0
-8 -4 -11 -10z"/>
<path d="M2108 5073 c6 -2 18 -2 25 0 6 3 1 5 -13 5 -14 0 -19 -2 -12 -5z"/>
<path d="M2625 5070 c-3 -5 -2 -17 3 -26 8 -14 10 -14 15 5 5 22 -7 38 -18 21z"/>
<path d="M2098 5043 c12 -2 32 -2 45 0 12 2 2 4 -23 4 -25 0 -35 -2 -22 -4z"/>
<path d="M2585 5040 c-3 -5 1 -10 9 -10 9 0 16 5 16 10 0 6 -4 10 -9 10 -6 0
-13 -4 -16 -10z"/>
<path d="M2934 5028 l-19 -23 23 19 c21 18 27 26 19 26 -2 0 -12 -10 -23 -22z"/>
<path d="M2556 5031 c-4 -7 -5 -15 -2 -18 9 -9 19 4 14 18 -4 11 -6 11 -12 0z"/>
<path d="M2100 5010 c0 -6 7 -10 15 -10 8 0 15 2 15 4 0 2 -7 6 -15 10 -8 3
-15 1 -15 -4z"/>
<path d="M2108 4973 c6 -2 18 -2 25 0 6 3 1 5 -13 5 -14 0 -19 -2 -12 -5z"/>
<path d="M2098 4943 c7 -3 16 -2 19 1 4 3 -2 6 -13 5 -11 0 -14 -3 -6 -6z"/>
<path d="M2088 4913 c6 -2 18 -2 25 0 6 3 1 5 -13 5 -14 0 -19 -2 -12 -5z"/>
<path d="M2130 4869 c0 -6 -13 -24 -30 -39 -16 -15 -30 -37 -30 -48 0 -11 -8
-23 -17 -26 -14 -6 -15 -9 -4 -15 10 -6 5 -13 -18 -27 -30 -17 -30 -19 -10
-26 20 -8 58 5 70 24 3 5 12 3 20 -5 8 -7 20 -12 27 -9 6 2 12 -1 12 -7 0 -6
7 -11 15 -11 8 0 15 -4 15 -9 0 -5 14 -11 30 -14 17 -4 30 -13 30 -21 0 -25
20 -29 43 -8 12 11 37 27 55 36 18 9 30 22 26 27 -4 8 -9 7 -15 -2 -5 -8 -9
-10 -9 -5 0 5 -7 2 -17 -5 -15 -13 -15 -12 -4 9 9 17 10 32 3 52 -7 18 -7 31
0 38 6 6 1 12 -15 16 -14 3 -27 14 -30 25 -3 13 -17 21 -45 26 -31 5 -39 10
-35 22 5 13 3 14 -18 3 -17 -10 -24 -10 -27 -1 -5 14 -22 15 -22 0z"/>
<path d="M4171 4853 c0 -5 4 -17 9 -28 8 -18 9 -17 9 8 1 15 -3 27 -9 27 -5 0
-10 -3 -9 -7z"/>
<path d="M3487 4843 c-4 -3 -7 -11 -7 -17 0 -6 5 -5 12 2 6 6 9 14 7 17 -3 3
-9 2 -12 -2z"/>
<path d="M3860 4830 c20 -13 33 -13 25 0 -3 6 -14 10 -23 10 -15 0 -15 -2 -2
-10z"/>
<path d="M3474 4795 c-10 -8 -14 -15 -8 -15 6 0 17 7 24 15 16 19 9 19 -16 0z"/>
<path d="M3870 4770 c0 -6 -4 -8 -10 -5 -6 3 -7 -1 -4 -9 3 -9 14 -16 23 -16
9 0 22 -5 28 -11 7 -7 13 -7 17 -1 3 6 -7 20 -24 32 -16 12 -30 16 -30 10z"/>
<path d="M1737 4753 c18 -2 50 -2 70 0 21 2 7 4 -32 4 -38 0 -55 -2 -38 -4z"/>
<path d="M1935 4750 c-3 -5 1 -10 10 -10 9 0 13 5 10 10 -3 6 -8 10 -10 10 -2
0 -7 -4 -10 -10z"/>
<path d="M3970 4756 c0 -2 7 -9 15 -16 12 -10 15 -10 15 4 0 9 -7 16 -15 16
-8 0 -15 -2 -15 -4z"/>
<path d="M4208 4743 c7 -3 16 -2 19 1 4 3 -2 6 -13 5 -11 0 -14 -3 -6 -6z"/>
<path d="M1748 4723 c6 -2 18 -2 25 0 6 3 1 5 -13 5 -14 0 -19 -2 -12 -5z"/>
<path d="M1808 4723 c7 -3 16 -2 19 1 4 3 -2 6 -13 5 -11 0 -14 -3 -6 -6z"/>
<path d="M1880 4705 c-18 -22 -8 -41 13 -21 9 9 19 17 22 16 17 -1 18 1 5 10
-20 13 -26 12 -40 -5z"/>
<path d="M4140 4680 c0 -16 4 -30 9 -30 4 0 8 13 7 30 -1 39 -16 39 -16 0z"/>
<path d="M1711 4696 c10 -10 80 -15 74 -6 -3 5 -22 10 -42 10 -20 0 -34 -2
-32 -4z"/>
<path d="M1808 4683 c7 -3 16 -2 19 1 4 3 -2 6 -13 5 -11 0 -14 -3 -6 -6z"/>
<path d="M1938 4683 c6 -2 18 -2 25 0 6 3 1 5 -13 5 -14 0 -19 -2 -12 -5z"/>
<path d="M2760 4674 c-59 -19 -82 -38 -78 -64 2 -11 7 -20 11 -20 5 1 14 -6
21 -16 20 -27 107 -14 159 23 33 23 42 35 42 58 0 29 -1 30 -55 32 -30 1 -75
-5 -100 -13z m60 -54 c0 -12 -38 -23 -51 -14 -8 4 -3 11 12 20 24 12 39 10 39
-6z"/>
<path d="M3685 4680 c-16 -7 -17 -9 -3 -9 9 -1 20 -6 24 -13 5 -7 3 -8 -6 -3
-9 5 -11 4 -6 -4 4 -6 12 -9 17 -6 5 4 8 -4 6 -17 -1 -15 3 -22 12 -20 7 1 20
-3 29 -10 14 -12 14 -11 2 9 -10 15 -18 19 -26 12 -8 -7 -11 0 -10 27 1 40 -7
47 -39 34z"/>
<path d="M3780 4676 c0 -2 7 -6 15 -10 8 -3 15 -1 15 4 0 6 -7 10 -15 10 -8 0
-15 -2 -15 -4z"/>
<path d="M1768 4653 c7 -3 16 -2 19 1 4 3 -2 6 -13 5 -11 0 -14 -3 -6 -6z"/>
<path d="M1800 4656 c0 -8 49 -13 60 -6 6 4 -5 7 -25 8 -19 1 -35 0 -35 -2z"/>
<path d="M1918 4653 c12 -2 30 -2 40 0 9 3 -1 5 -23 4 -22 0 -30 -2 -17 -4z"/>
<path d="M1773 4623 c15 -2 39 -2 55 0 15 2 2 4 -28 4 -30 0 -43 -2 -27 -4z"/>
<path d="M1883 4623 c9 -2 23 -2 30 0 6 3 -1 5 -18 5 -16 0 -22 -2 -12 -5z"/>
<path d="M1958 4623 c7 -3 16 -2 19 1 4 3 -2 6 -13 5 -11 0 -14 -3 -6 -6z"/>
<path d="M2010 4610 c0 -4 -14 -20 -30 -36 -17 -16 -45 -49 -62 -74 -17 -25
-38 -49 -45 -53 -7 -5 -11 -12 -8 -18 4 -5 -1 -9 -9 -9 -9 0 -13 -6 -10 -14 3
-8 0 -17 -7 -22 -8 -5 -10 -3 -4 7 7 12 6 12 -7 1 -9 -8 -14 -20 -11 -28 3 -8
-1 -14 -8 -14 -8 0 -4 -8 10 -19 l23 -18 -23 -23 c-20 -19 -20 -22 -5 -16 15
5 17 2 13 -15 -7 -25 2 -51 14 -43 5 3 9 0 9 -5 0 -17 67 -13 74 4 3 8 12 15
21 15 9 0 26 6 38 14 12 8 34 13 50 11 15 -2 27 1 27 6 0 5 -6 9 -12 9 -8 1
-6 6 5 14 9 7 17 19 17 27 0 17 30 67 57 94 15 16 18 27 12 55 -10 53 -19 69
-35 63 -10 -4 -14 3 -14 26 0 17 -4 31 -10 31 -5 0 -9 3 -9 8 4 22 -4 29 -31
29 -16 0 -30 -3 -30 -7z m-107 -227 c-5 -12 -2 -15 10 -10 23 8 21 -3 -4 -33
-21 -25 -21 -25 -16 -2 5 20 3 21 -10 11 -25 -22 -36 11 -11 33 26 23 39 23
31 1z"/>
<path d="M3970 4611 c0 -12 36 -21 63 -16 14 3 17 1 10 -6 -6 -6 -21 -9 -34
-7 -13 2 -29 -4 -36 -12 -11 -13 -12 -13 -13 3 0 19 -15 23 -25 7 -3 -5 -1
-10 5 -10 6 0 8 -5 4 -11 -5 -8 5 -10 31 -7 32 4 35 3 19 -9 -25 -18 2 -16 31
3 49 32 38 74 -21 74 -19 0 -34 -4 -34 -9z"/>
<path d="M2570 4584 c-28 -24 -39 -27 -100 -25 -117 3 -169 -39 -177 -143 -5
-57 -3 -66 11 -66 9 0 32 15 51 33 19 17 49 43 66 57 l32 24 -6 -41 c-8 -49
12 -81 64 -99 30 -10 40 -8 84 14 28 14 57 33 66 42 22 22 128 44 174 37 50
-8 65 11 65 83 0 32 -4 61 -8 64 -4 2 -27 -4 -51 -15 -24 -10 -62 -19 -85 -19
-47 0 -106 31 -113 61 -7 27 -36 24 -73 -7z"/>
<path d="M4066 4579 c-18 -31 -18 -31 3 -24 13 4 28 1 36 -5 9 -7 15 -8 15 -2
0 5 -10 17 -22 26 l-23 17 25 -7 c14 -4 23 -5 20 -2 -34 27 -36 27 -54 -3z"/>
<path d="M1818 4593 c7 -3 16 -2 19 1 4 3 -2 6 -13 5 -11 0 -14 -3 -6 -6z"/>
<path d="M2235 4590 c-3 -5 -1 -10 4 -10 6 0 11 5 11 10 0 6 -2 10 -4 10 -3 0
-8 -4 -11 -10z"/>
<path d="M3720 4586 c0 -2 7 -6 15 -10 8 -3 15 -1 15 4 0 6 -7 10 -15 10 -8 0
-15 -2 -15 -4z"/>
<path d="M3825 4581 c-3 -6 4 -15 15 -21 23 -12 26 -5 6 16 -9 8 -17 10 -21 5z"/>
<path d="M1528 4563 c7 -3 16 -2 19 1 4 3 -2 6 -13 5 -11 0 -14 -3 -6 -6z"/>
<path d="M1588 4563 c7 -3 16 -2 19 1 4 3 -2 6 -13 5 -11 0 -14 -3 -6 -6z"/>
<path d="M1548 4533 c12 -2 30 -2 40 0 9 3 -1 5 -23 4 -22 0 -30 -2 -17 -4z"/>
<path d="M1538 4503 c12 -2 32 -2 45 0 12 2 2 4 -23 4 -25 0 -35 -2 -22 -4z"/>
<path d="M2192 4485 c0 -16 2 -22 5 -12 2 9 2 23 0 30 -3 6 -5 -1 -5 -18z"/>
<path d="M4306 4497 c3 -10 9 -15 12 -12 3 3 0 11 -7 18 -10 9 -11 8 -5 -6z"/>
<path d="M4646 4497 c3 -10 9 -15 12 -12 3 3 0 11 -7 18 -10 9 -11 8 -5 -6z"/>
<path d="M3751 4484 c0 -11 3 -14 6 -6 3 7 2 16 -1 19 -3 4 -6 -2 -5 -13z"/>
<path d="M3830 4490 c0 -5 7 -10 15 -10 8 0 15 -9 15 -19 0 -11 5 -23 11 -27
13 -8 3 33 -13 54 -12 15 -28 16 -28 2z"/>
<path d="M3825 4460 c-3 -6 1 -7 9 -4 18 7 21 14 7 14 -6 0 -13 -4 -16 -10z"/>
<path d="M4762 4435 c0 -16 2 -22 5 -12 2 9 2 23 0 30 -3 6 -5 -1 -5 -18z"/>
<path d="M2165 4440 c-3 -5 -2 -10 4 -10 5 0 13 5 16 10 3 6 2 10 -4 10 -5 0
-13 -4 -16 -10z"/>
<path d="M4676 4413 c-6 -14 -5 -15 5 -6 7 7 10 15 7 18 -3 3 -9 -2 -12 -12z"/>
<path d="M3830 4365 c-8 -9 -8 -15 -2 -15 12 0 26 19 19 26 -2 2 -10 -2 -17
-11z"/>
<path d="M3043 4305 c-39 -16 -58 -53 -49 -90 6 -23 95 -117 129 -137 22 -12
161 23 188 48 31 28 25 80 -13 115 -56 50 -202 87 -255 64z"/>
<path d="M4726 4265 c-18 -18 -21 -35 -6 -35 11 0 34 39 27 46 -3 3 -12 -2
-21 -11z"/>
<path d="M3940 4261 c0 -5 5 -13 10 -16 6 -3 10 -2 10 4 0 5 -4 13 -10 16 -5
3 -10 2 -10 -4z"/>
<path d="M2046 4224 c-4 -10 -1 -14 6 -12 15 5 23 28 10 28 -5 0 -13 -7 -16
-16z"/>
<path d="M1942 4205 c-11 -12 -10 -15 3 -15 8 0 15 7 15 15 0 18 -2 18 -18 0z"/>
<path d="M3100 4064 c-1 -19 -54 -47 -103 -54 l-52 -8 50 -1 c31 -1 59 5 73
15 12 8 22 12 23 7 0 -4 5 3 10 16 5 13 7 26 4 29 -3 3 -5 1 -5 -4z"/>
<path d="M2093 4053 c9 -2 23 -2 30 0 6 3 -1 5 -18 5 -16 0 -22 -2 -12 -5z"/>
<path d="M4350 4041 c0 -5 5 -13 10 -16 6 -3 10 -2 10 4 0 5 -4 13 -10 16 -5
3 -10 2 -10 -4z"/>
<path d="M3095 4001 c-3 -5 -1 -12 5 -16 5 -3 10 1 10 9 0 18 -6 21 -15 7z"/>
<path d="M1967 3987 c-4 -10 -11 -15 -17 -12 -5 3 -10 -1 -10 -10 0 -8 -7 -18
-15 -21 -8 -4 -15 -14 -15 -23 0 -9 -7 -27 -17 -40 -13 -19 -14 -27 -4 -43 7
-11 10 -23 7 -26 -3 -3 -6 -2 -6 2 0 5 -8 -2 -18 -14 -15 -18 -21 -20 -45 -11
-24 10 -27 15 -27 61 0 27 -3 50 -7 50 -16 0 -35 -18 -30 -26 3 -5 -1 -17 -8
-27 -8 -12 -15 -14 -20 -8 -3 6 -18 11 -33 10 l-27 -1 25 -7 c23 -7 22 -8 -15
-16 -22 -5 -46 -7 -52 -6 -7 1 -13 -5 -13 -12 0 -8 -10 -17 -22 -20 -19 -5
-20 -8 -7 -24 11 -15 9 -14 -10 2 -22 19 -23 19 -37 1 -7 -11 -23 -20 -34 -21
-10 -1 -27 -10 -37 -22 -10 -11 -28 -23 -40 -27 -13 -4 -24 -18 -28 -36 -6
-26 -9 -28 -30 -18 -15 7 -33 7 -52 1 l-28 -10 32 -16 c44 -23 48 -34 27 -73
-17 -32 -46 -45 -58 -25 -3 4 -28 11 -57 14 -45 6 -53 3 -75 -18 -31 -31 -30
-60 3 -91 14 -13 23 -27 19 -31 -10 -10 45 -63 66 -63 10 0 18 -4 18 -9 0 -5
11 -12 25 -15 25 -6 69 20 59 36 -3 4 0 8 5 8 6 0 14 18 17 40 4 21 11 38 17
37 6 -1 16 13 22 31 6 18 14 29 18 26 4 -4 9 1 13 10 3 9 15 16 25 16 10 0 19
6 19 14 0 9 13 14 42 14 33 1 46 -5 69 -29 25 -27 56 -109 74 -198 7 -33 6
-34 -9 -18 -10 9 -20 17 -24 18 -4 0 -19 3 -34 5 -22 4 -34 -3 -58 -28 -16
-18 -30 -40 -30 -48 0 -8 -16 -33 -36 -55 -20 -22 -41 -51 -46 -65 -13 -31
-12 -88 2 -105 7 -9 6 -16 -5 -25 -13 -11 -13 -14 2 -28 14 -15 14 -17 -11
-25 -28 -9 -34 -22 -13 -31 6 -3 -4 -4 -24 -1 -27 4 -36 2 -36 -10 0 -18 13
-20 20 -2 3 6 6 2 6 -11 1 -13 -4 -22 -11 -21 -28 3 -37 -2 -33 -19 2 -12 -3
-18 -15 -18 -10 0 -16 4 -14 8 3 4 -1 8 -9 8 -10 0 -13 -7 -10 -18 3 -14 12
-18 31 -15 22 2 20 0 -13 -17 -32 -16 -36 -20 -17 -20 13 0 21 -4 18 -9 -3 -5
1 -12 10 -15 24 -9 -1 -36 -35 -37 -22 -1 -21 -3 9 -9 19 -4 27 -8 17 -9 -10
0 -26 -9 -35 -18 -16 -16 -16 -16 1 -10 9 3 17 2 17 -3 0 -6 -6 -10 -12 -10
-10 0 -9 -3 1 -9 11 -7 8 -11 -10 -16 -23 -8 -23 -8 -4 -16 13 -5 15 -8 5 -8
-13 -1 -13 -2 0 -11 11 -7 6 -10 -20 -10 -25 0 -31 -3 -20 -9 8 -6 18 -7 24
-4 5 3 6 1 2 -5 -4 -6 -12 -9 -19 -6 -7 2 -33 -5 -58 -16 -41 -20 -42 -21 -10
-14 23 4 31 3 27 -5 -4 -6 0 -11 9 -11 14 0 14 -3 -2 -25 -11 -16 -25 -23 -36
-21 -10 3 -21 -2 -24 -10 -3 -8 -10 -14 -17 -14 -6 0 -19 -9 -29 -20 -19 -22
-22 -35 -7 -25 6 3 18 -1 27 -11 16 -16 16 -16 -6 -9 -16 5 -21 4 -17 -4 5 -7
1 -9 -8 -5 -9 4 -16 1 -16 -6 0 -7 -7 -10 -17 -6 -10 4 -14 4 -11 0 4 -4 2
-16 -3 -27 -10 -17 -9 -19 10 -14 12 3 19 1 15 -4 -3 -5 -13 -9 -24 -9 -25 0
-33 -27 -12 -40 13 -8 10 -9 -13 -4 -22 4 -26 3 -15 -5 15 -11 17 -9 -36 -26
-8 -3 -13 -1 -9 4 3 5 -1 12 -7 15 -7 3 -2 3 12 0 18 -4 21 -3 11 4 -11 8 -9
11 8 17 13 4 20 9 18 12 -3 2 -15 -1 -27 -7 -12 -7 -39 -12 -58 -12 -21 0 -41
-6 -48 -16 -13 -18 -38 -7 -30 14 3 8 1 14 -4 14 -6 0 -10 -3 -11 -7 0 -5 -3
-21 -5 -36 -4 -25 -2 -28 15 -22 16 5 20 2 18 -15 -1 -21 -8 -25 -21 -12 -4 4
-12 8 -17 8 -5 1 -13 2 -18 3 -5 0 -8 9 -7 18 0 12 -6 18 -19 19 -15 1 -16 0
-2 -3 26 -7 20 -23 -8 -23 -14 0 -25 -5 -25 -10 0 -6 11 -8 25 -4 19 5 25 2
25 -10 0 -9 -6 -13 -14 -10 -15 6 -36 -24 -29 -42 2 -6 -4 -17 -13 -25 -16
-13 -17 -11 -10 16 7 29 7 29 -8 10 -8 -11 -16 -25 -16 -32 0 -6 -12 -13 -27
-15 -14 -2 -28 -9 -31 -16 -3 -11 0 -12 16 -3 30 16 42 14 42 -9 0 -13 -7 -20
-20 -20 -11 0 -20 -4 -20 -10 0 -5 -7 -10 -15 -10 -10 0 -15 -10 -15 -30 0
-16 5 -30 10 -30 6 0 10 -7 10 -15 0 -8 -7 -15 -17 -15 -9 0 -14 -3 -10 -6 3
-4 18 -3 32 0 19 5 25 12 21 22 -4 9 -2 12 5 8 6 -3 8 -17 5 -29 -6 -23 -4
-23 45 -21 59 2 75 -10 24 -20 -52 -9 -54 -25 -3 -20 l43 5 -42 -11 c-38 -10
-59 -28 -33 -28 6 0 10 -4 10 -10 0 -5 -7 -7 -15 -4 -9 4 -15 0 -15 -10 0 -9
-6 -15 -13 -14 -6 2 -11 -3 -9 -9 1 -7 -2 -13 -8 -13 -5 0 -10 5 -10 10 0 14
-27 13 -36 -2 -5 -8 -1 -9 12 -5 17 6 17 6 3 -6 -17 -13 -7 -31 19 -33 42 -3
42 -7 -3 -19 -57 -14 -25 -19 42 -6 23 5 40 5 38 1 -2 -4 -32 -13 -66 -19 -46
-9 -59 -15 -50 -24 8 -8 14 -8 23 1 7 7 19 12 28 12 12 -1 11 -4 -5 -16 -11
-8 -28 -13 -37 -11 -9 3 -26 -5 -37 -17 -21 -22 -19 -36 3 -36 6 0 4 5 -4 10
-13 8 -12 10 3 10 10 0 15 5 12 10 -3 6 -2 10 4 10 5 0 11 -6 14 -12 3 -10 8
-10 21 1 9 8 20 10 24 6 4 -4 1 -10 -5 -12 -7 -3 -13 -9 -13 -14 0 -6 5 -7 11
-4 16 11 72 -16 60 -28 -7 -7 -15 -6 -25 2 -11 9 -20 10 -35 1 -18 -9 -21 -8
-21 9 0 10 -6 21 -12 24 -9 3 -13 -5 -13 -24 0 -33 2 -35 34 -24 18 5 28 3 38
-11 18 -24 16 -36 -4 -33 -10 2 -28 -2 -40 -9 -19 -11 -23 -10 -23 3 0 8 6 15
14 15 8 0 17 4 20 9 4 5 -9 5 -27 -1 -30 -9 -32 -13 -29 -46 4 -33 3 -35 -19
-29 -23 6 -23 5 -5 -8 10 -8 24 -16 30 -19 7 -3 6 -8 -4 -16 -12 -9 -11 -10 7
-5 18 5 20 2 16 -15 -3 -11 -13 -20 -22 -20 -14 -1 -14 -2 1 -11 15 -8 16 -13
5 -32 -6 -12 -16 -26 -22 -30 -6 -6 -6 -10 3 -14 6 -2 12 -9 12 -15 0 -6 8
-17 17 -25 17 -13 16 -14 -4 -8 -17 5 -23 2 -23 -9 0 -9 -9 -17 -22 -18 -42
-2 -47 -3 -54 -11 -5 -4 8 -7 29 -5 41 2 55 -6 40 -24 -6 -8 -7 -22 -2 -33 12
-32 10 -37 -13 -30 -22 7 -22 6 2 -11 14 -10 32 -19 40 -19 10 0 14 -8 12 -25
-1 -14 -3 -32 -3 -40 0 -8 -5 -25 -11 -36 -9 -19 -15 -21 -39 -14 -17 5 -27 5
-24 0 3 -5 1 -11 -5 -15 -6 -4 -8 -10 -5 -15 4 -6 14 -4 25 2 11 7 22 9 26 5
11 -10 -16 -37 -37 -37 -11 0 -19 -5 -19 -11 0 -6 7 -8 16 -5 8 3 22 -1 31 -9
11 -12 28 -14 66 -10 43 5 49 4 33 -6 -10 -6 -38 -13 -61 -14 -23 -2 -57 -13
-76 -25 l-34 -22 32 6 c26 4 31 2 26 -9 -3 -9 1 -15 11 -15 9 0 16 -5 16 -10
0 -6 -12 -10 -27 -10 -28 1 -109 -17 -87 -19 7 -1 14 -12 16 -26 5 -22 2 -25
-23 -25 -29 0 -39 14 -16 23 6 3 -6 6 -28 7 -22 1 -34 4 -27 7 17 7 16 53 -2
53 -9 0 -12 -7 -9 -20 4 -16 0 -20 -20 -20 -46 0 -53 -7 -49 -53 3 -23 9 -49
16 -57 9 -13 9 -13 -5 -2 -13 10 -19 9 -29 -3 -11 -13 -8 -15 14 -15 34 0 50
-35 28 -61 -12 -14 -19 -15 -33 -6 -11 7 -19 17 -19 24 0 7 -7 13 -15 13 -21
0 -19 -9 10 -36 30 -28 34 -50 6 -32 -15 9 -23 8 -43 -8 -14 -11 -23 -25 -20
-32 2 -7 -5 -12 -17 -12 -11 0 -25 -9 -31 -20 -6 -11 -19 -20 -29 -20 -11 0
-22 -7 -25 -16 -4 -10 -14 -14 -26 -11 -11 3 -18 1 -14 -4 3 -5 0 -9 -5 -9 -6
0 -11 5 -11 10 0 6 -4 10 -10 10 -5 0 -9 -6 -7 -12 1 -7 -6 -12 -16 -10 -19 3
-19 11 -23 -188 -1 -74 0 -147 3 -162 5 -24 9 -27 32 -22 38 10 45 15 30 25
-12 7 -11 9 1 10 8 1 19 1 24 0 13 -3 46 30 46 45 0 7 -6 15 -12 17 -8 3 -6 6
5 6 11 1 17 7 15 18 -2 12 2 17 12 14 8 -2 30 -5 49 -6 33 -2 75 -40 65 -57
-3 -4 2 -8 11 -8 9 0 14 4 11 9 -4 5 -1 22 6 38 12 28 15 38 17 59 1 15 30 26
43 18 7 -5 4 -12 -7 -21 -17 -11 -17 -13 -2 -13 11 0 14 -5 10 -16 -3 -9 0
-20 8 -25 11 -6 8 -9 -8 -9 -14 0 -23 -6 -23 -15 0 -8 -5 -15 -11 -15 -5 0 -7
-5 -4 -10 4 -6 -7 -10 -24 -10 -26 0 -30 -3 -27 -22 2 -20 11 -24 62 -29 32
-4 1316 -7 2852 -8 2543 -1 2793 0 2799 15 7 20 10 265 3 316 -5 35 -20 54
-20 25 0 -7 -9 -13 -20 -13 -13 0 -20 7 -20 18 0 10 -7 18 -15 18 -8 0 -15 5
-15 10 0 6 -5 10 -12 10 -9 0 -9 -3 0 -12 7 -7 12 -19 12 -27 0 -19 -48 -43
-64 -34 -6 4 -3 -3 7 -14 20 -23 22 -33 4 -33 -7 0 -18 9 -25 20 -13 21 -42
28 -42 10 0 -6 7 -24 15 -41 9 -16 13 -35 9 -41 -4 -7 -12 -1 -20 14 -18 34
-48 41 -70 17 -10 -11 -12 -19 -6 -19 7 0 12 -16 12 -40 0 -45 -8 -49 -33 -20
-9 11 -21 20 -27 20 -5 0 -10 -9 -10 -20 0 -12 -7 -20 -17 -20 -14 0 -15 -2
-5 -9 10 -6 7 -12 -12 -25 -25 -16 -26 -15 -32 9 -8 33 -27 32 -55 -2 -19 -25
-21 -26 -15 -5 6 17 3 22 -11 22 -11 0 -14 3 -7 8 19 13 25 42 8 42 -9 0 -14
7 -12 17 4 22 28 29 28 8 0 -15 3 -15 15 -5 9 7 13 15 11 18 -3 2 3 16 14 29
10 13 16 31 13 39 -3 8 0 14 5 14 6 0 13 -8 15 -17 4 -17 5 -17 6 0 1 12 10
17 29 17 l27 1 -25 20 c-14 12 -26 16 -28 10 -2 -6 -15 -11 -29 -11 -20 0 -23
3 -14 14 9 10 8 16 -3 25 -12 10 -17 9 -24 -6 -14 -26 -55 -27 -70 -3 -10 16
-9 29 7 70 19 49 19 49 0 39 -10 -5 -19 -14 -19 -19 0 -6 -9 -10 -20 -10 -22
0 -27 28 -11 59 6 10 6 23 0 32 -6 10 -9 7 -9 -13 0 -16 -4 -28 -10 -28 -5 0
-10 -12 -10 -27 -1 -27 -1 -27 -15 -9 -8 10 -16 24 -18 30 -3 8 -11 7 -26 -1
-27 -17 -27 -17 -36 10 -6 19 -8 19 -12 5 -3 -11 -14 -18 -29 -18 -17 0 -23 4
-18 12 13 21 11 48 -3 48 -7 0 -13 5 -13 11 0 6 -7 9 -14 6 -10 -4 -13 -1 -9
9 3 7 15 14 28 14 13 0 25 6 28 13 3 9 -4 12 -28 9 -23 -3 -34 1 -38 12 -5 12
0 16 18 16 29 0 36 34 9 44 -13 5 -14 9 -4 21 7 8 19 15 26 15 18 0 36 44 27
66 -5 13 -2 15 15 9 22 -6 23 -4 26 34 2 30 26 23 26 -8 0 -24 4 -31 19 -31
10 0 21 7 25 15 3 8 13 15 22 15 10 0 14 5 10 15 -3 9 0 24 6 35 7 10 10 21 7
24 -7 7 -69 -16 -69 -26 0 -4 -7 -8 -15 -8 -8 0 -15 5 -15 10 0 6 -8 10 -17
11 -10 0 -13 3 -6 5 7 3 9 12 6 20 -4 12 2 13 36 8 39 -6 56 5 31 21 -6 4 -8
15 -5 26 4 11 2 19 -4 19 -6 0 -11 6 -11 13 0 22 -40 48 -62 41 -14 -4 -18 -2
-14 5 4 6 15 11 24 11 10 0 13 3 6 8 -18 12 -25 42 -10 42 8 0 16 -5 18 -10 4
-14 57 12 89 43 13 13 32 27 43 30 14 6 17 14 12 37 -3 16 -2 29 2 29 18 -3
32 2 32 11 0 6 -9 10 -20 10 -11 0 -20 3 -20 8 0 12 -62 12 -77 1 -7 -6 -10
-16 -6 -22 4 -7 -5 -8 -25 -4 -41 8 -40 2 1 -23 l32 -20 -27 0 c-16 0 -28 -4
-28 -10 0 -5 -9 -10 -20 -10 -11 0 -20 6 -20 14 0 18 -63 48 -84 40 -19 -7
-21 7 -4 24 9 9 9 12 0 12 -7 0 -12 7 -12 15 0 8 -6 12 -13 9 -10 -4 -12 3 -9
26 4 28 -3 35 -30 31 -4 0 -10 8 -13 19 -10 31 -38 41 -91 31 -48 -9 -74 -6
-74 9 0 5 -9 12 -20 15 -11 3 -20 13 -20 21 0 8 -7 14 -15 14 -11 0 -14 11
-12 47 2 46 1 48 -23 45 -14 -1 -33 -12 -43 -23 -9 -12 -17 -16 -17 -10 0 6
-12 11 -27 11 -23 1 -25 2 -11 10 21 13 12 50 -13 50 -11 0 -18 -3 -16 -7 1
-5 -2 -9 -7 -11 -12 -3 -18 86 -6 93 4 3 6 14 3 25 -4 15 0 20 13 21 15 0 16
2 4 7 -23 11 -19 57 5 58 47 2 48 3 35 19 -7 8 -17 12 -22 9 -5 -3 -16 4 -25
16 -12 16 -22 20 -42 16 l-26 -6 25 16 c14 8 18 13 9 11 -18 -6 -44 8 -44 23
0 5 -4 9 -10 8 -5 -2 -9 -10 -8 -18 2 -8 -3 -5 -9 8 -14 29 3 44 42 36 l25 -4
-23 10 c-13 5 -27 8 -31 6 -3 -2 -14 2 -24 9 -14 10 -21 35 -28 92 -14 118
-78 269 -167 397 -28 39 -39 63 -33 70 6 6 11 23 14 36 7 50 31 112 44 117 7
3 13 9 13 14 0 4 15 23 33 41 36 36 37 62 4 90 -11 10 -16 18 -11 18 5 0 10
15 11 33 2 21 12 39 30 54 27 22 27 23 6 23 -13 0 -23 5 -23 10 0 6 9 10 19
10 10 0 21 6 24 14 4 10 0 12 -14 9 -14 -4 -19 0 -19 15 0 12 5 24 10 27 6 3
10 17 10 31 0 14 4 23 9 20 11 -7 23 64 13 78 -13 18 -15 109 -2 101 6 -3 8
-10 6 -14 -8 -12 11 -34 23 -27 12 8 15 56 3 56 -4 0 -13 9 -20 20 -12 19 -11
20 13 14 15 -4 25 -2 25 5 0 6 -4 11 -10 11 -13 0 -13 33 0 46 6 6 8 18 4 28
-6 14 -9 15 -23 3 -9 -7 -32 -14 -51 -15 -31 -1 -32 0 -10 7 14 5 20 9 14 10
-18 2 -41 64 -26 69 32 10 0 61 -57 92 -12 6 -19 15 -16 21 7 10 -15 12 -39 3
-9 -3 -13 -10 -10 -15 5 -9 -15 -13 -49 -9 -10 1 -25 -4 -34 -11 -17 -14 -19
-15 -107 -17 -33 -1 -56 -5 -52 -9 4 -4 25 -6 47 -4 38 2 40 1 30 -17 -8 -15
-23 -21 -61 -24 -27 -1 -50 0 -50 5 0 4 23 7 51 7 33 0 48 4 44 11 -5 6 -22 8
-47 4 -29 -5 -39 -4 -34 4 4 6 2 11 -3 11 -6 0 -11 -4 -11 -9 0 -5 -9 -11 -20
-14 -24 -6 -24 -21 -9 -242 25 -384 5 -565 -93 -813 -48 -123 -89 -200 -114
-215 -7 -4 -23 -25 -35 -48 -15 -25 -28 -38 -37 -34 -7 3 -20 5 -28 5 -11 0
-14 13 -12 58 3 68 -12 225 -22 232 -12 9 10 71 22 64 8 -5 9 -1 5 10 -4 10
-2 27 4 38 6 12 12 42 13 67 2 43 4 47 36 58 28 9 32 13 17 18 -27 11 -5 31
78 69 39 18 72 39 72 47 0 8 4 22 8 31 5 13 2 15 -15 11 -19 -5 -21 -3 -15 16
7 22 6 22 -24 7 -37 -20 -41 -20 -41 -1 0 18 -38 19 -62 2 -17 -13 -103 -88
-149 -129 -60 -54 -89 -104 -89 -153 0 -96 38 -242 90 -346 28 -54 50 -103 50
-108 0 -5 -21 -13 -46 -17 -36 -5 -54 -3 -77 11 -16 10 -47 19 -68 21 -32 3
-41 -1 -59 -25 -11 -16 -20 -34 -20 -40 0 -6 -11 -11 -25 -11 -14 0 -25 -4
-25 -10 0 -14 -46 -12 -58 3 -22 27 -78 289 -88 417 -6 70 -9 79 -19 61 l-11
-22 -14 26 c-7 14 -24 28 -36 31 -25 6 -66 -3 -75 -18 -3 -5 -22 -11 -42 -15
-28 -4 -37 -2 -37 9 0 22 42 57 81 68 34 10 99 -3 99 -20 0 -4 6 -10 13 -13 9
-3 12 17 12 84 0 63 -4 89 -12 89 -21 0 -3 28 27 40 16 7 36 21 46 31 17 19
17 19 -27 0 -49 -23 -106 -26 -159 -11 -24 7 -43 7 -62 -1 -20 -8 -36 -8 -60
0 -26 9 -46 8 -90 -4 -35 -9 -75 -12 -107 -8 -42 5 -52 3 -57 -11 -9 -23 -8
-23 64 -30 35 -3 67 -8 71 -10 4 -3 41 -10 81 -17 65 -10 78 -9 141 11 38 13
72 20 75 17 10 -9 -26 -67 -41 -67 -8 0 -15 -4 -15 -8 0 -5 -20 -8 -45 -7 -25
1 -48 -2 -51 -6 -14 -23 -144 5 -144 31 0 7 -7 6 -19 -2 -11 -7 -17 -16 -15
-20 3 -5 -3 -16 -12 -25 -13 -13 -19 -14 -22 -5 -2 7 -8 9 -14 6 -16 -10 -58
17 -58 38 0 10 -5 18 -11 18 -6 0 -9 6 -6 13 4 10 -2 13 -18 10 -12 -3 -38 3
-56 13 -41 20 -99 80 -99 100 0 8 -4 12 -10 9 -5 -3 -10 2 -10 12 0 20 -34 93
-48 102 -5 3 -14 24 -20 46 -62 225 -60 219 -52 298 12 103 30 137 74 137 32
0 86 -37 86 -59 0 -28 196 -83 211 -59 4 6 11 8 17 4 6 -3 14 -1 18 5 5 9 -2
10 -24 6 -24 -5 -32 -3 -32 8 0 10 -16 16 -50 21 -28 4 -53 11 -56 15 -3 5
-14 9 -25 9 -22 0 -25 16 -5 36 8 7 17 19 20 26 5 10 7 10 12 1 27 -59 83 -73
119 -30 l22 25 38 -36 c38 -36 38 -36 33 -10 -4 19 -1 25 8 21 22 -8 27 22 10
61 -8 20 -11 36 -5 36 5 0 9 -5 9 -10 0 -6 11 -3 25 6 53 35 19 87 -76 118
-83 27 -136 37 -206 39 -29 1 -53 4 -53 6 0 9 42 40 68 49 98 38 231 32 382
-15 47 -15 87 -31 88 -35 2 -5 7 -6 11 -4 14 9 96 -39 99 -58 3 -15 -1 -18
-18 -13 -23 6 -46 -21 -52 -63 -2 -14 -9 -35 -16 -47 -7 -12 -15 -49 -18 -81
-6 -56 -6 -59 16 -57 12 1 25 7 30 14 6 10 13 10 34 -4 20 -14 26 -14 26 -4 1
8 16 23 34 35 l32 21 37 -39 c20 -21 31 -37 25 -35 -7 1 -12 -2 -13 -8 0 -5
-4 -16 -8 -22 -6 -10 2 -13 33 -13 24 0 39 -4 35 -10 -3 -5 -12 -7 -19 -4 -8
3 -17 0 -22 -7 -5 -9 13 -11 81 -6 49 3 99 1 111 -3 25 -10 127 14 159 37 20
14 20 14 0 13 -36 -4 -43 0 -67 37 -12 20 -35 55 -50 77 -15 23 -37 60 -49 82
-26 51 -65 94 -84 94 -21 0 -104 53 -105 68 0 6 -7 12 -15 12 -8 0 -38 18 -67
40 -29 22 -58 40 -65 40 -6 0 -13 5 -15 11 -2 5 -10 11 -18 12 -8 2 -21 6 -27
10 -7 4 -29 10 -50 13 -21 2 -42 10 -48 17 -5 6 -19 12 -30 11 -11 0 -24 3
-30 6 -17 12 -100 30 -167 36 -35 3 -66 8 -71 11 -4 2 -53 4 -110 3 -56 -1
-114 -1 -129 -1 -15 1 -29 -3 -33 -9 -3 -5 -14 -10 -24 -10 -25 0 -58 -18
-108 -58 -47 -37 -124 -125 -127 -145 -1 -7 -14 -34 -29 -59 -15 -26 -27 -49
-27 -52 0 -2 -5 -17 -12 -33 -6 -15 -12 -39 -13 -53 -1 -14 -6 -45 -10 -70 -9
-53 -13 -220 -4 -220 3 0 4 -20 3 -45 -2 -34 1 -45 12 -45 9 0 14 -10 14 -30
0 -18 -5 -30 -13 -30 -7 0 -20 -30 -31 -72 -11 -40 -24 -81 -29 -90 -8 -12 -8
-23 0 -40 7 -13 11 -49 9 -82 -1 -32 2 -83 7 -112 6 -36 5 -64 -1 -84 -8 -22
-8 -29 1 -27 9 1 12 -22 10 -83 -2 -98 -14 -169 -39 -226 -22 -52 -40 -49 -79
14 -16 26 -41 62 -57 80 -53 61 -71 109 -66 175 4 52 9 64 35 86 16 14 43 33
60 42 34 19 33 -1 13 221 -6 65 -7 136 -4 158 5 31 3 40 -8 40 -8 0 -19 15
-26 34 -9 24 -29 44 -73 71 -33 20 -63 34 -66 31 -4 -3 -3 -6 2 -6 4 0 2 -6
-5 -14 -6 -8 -18 -12 -26 -9 -16 6 -32 -30 -36 -79 -2 -32 25 -88 43 -88 14 0
29 -37 23 -54 -8 -20 -73 -22 -96 -3 -17 13 -44 101 -47 152 -2 36 18 125 28
125 4 0 13 -6 20 -12 11 -11 12 -8 7 17 l-7 30 20 -25 20 -25 28 21 c18 14 30
33 33 55 4 26 7 30 12 17 5 -12 18 -18 38 -18 17 0 54 -12 83 -27 29 -15 57
-28 62 -28 12 0 36 207 25 218 -4 5 -50 10 -101 10 l-94 2 -17 -34 c-10 -19
-18 -45 -18 -57 0 -20 -6 -17 -50 27 -57 56 -74 87 -85 144 -4 22 -10 45 -14
50 -5 6 -11 21 -14 35 -6 23 -5 24 8 7 13 -18 15 -18 36 7 12 14 26 23 30 20
4 -2 11 0 14 6 5 8 11 7 21 -1 11 -9 14 -8 14 5 0 12 5 14 25 6 23 -9 25 -7
25 18 1 29 23 66 33 55 4 -3 7 -21 7 -39 0 -18 6 -34 14 -37 20 -8 28 4 15 20
-9 10 -8 13 4 13 9 0 21 -8 26 -17 9 -16 10 -14 11 9 0 15 5 30 11 34 14 8 27
-12 24 -35 -1 -9 0 -10 2 -3 3 6 9 12 14 12 6 0 7 5 3 12 -4 7 -3 8 5 4 6 -4
8 -12 5 -18 -5 -7 -1 -9 9 -5 11 4 17 -2 22 -23 7 -32 25 -51 25 -26 0 8 -4
18 -10 21 -17 10 -6 176 15 216 l18 37 -33 46 c-22 30 -36 42 -41 35 -5 -8 -8
-5 -11 7 -3 18 -4 18 -11 1z m757 -411 c79 -18 66 -31 -31 -31 -49 -1 -105 -3
-126 -6 -36 -5 -38 -4 -33 18 5 17 3 21 -9 17 -8 -4 -15 -1 -15 4 0 22 110 21
214 -2z m51 -67 c22 -11 47 -30 54 -41 11 -18 8 -17 -21 4 -40 30 -62 39 -108
45 -48 6 -51 13 -5 13 21 0 57 -9 80 -21z m-155 1 c0 -5 -8 -10 -17 -10 -15 0
-16 2 -3 10 19 12 20 12 20 0z m110 -30 c0 -5 -4 -10 -10 -10 -5 0 -10 5 -10
10 0 6 5 10 10 10 6 0 10 -4 10 -10z m1440 -50 c0 -5 -10 -10 -22 -9 -22 0
-22 1 -3 9 11 5 21 9 23 9 1 1 2 -3 2 -9z m-1985 -30 c-3 -5 -11 -10 -16 -10
-6 0 -7 5 -4 10 3 6 11 10 16 10 6 0 7 -4 4 -10z m1982 4 c-3 -3 -12 -4 -19
-1 -8 3 -5 6 6 6 11 1 17 -2 13 -5z m56 -1 c-7 -2 -21 -2 -30 0 -10 3 -4 5 12
5 17 0 24 -2 18 -5z m-2926 -42 c14 -22 -1 -33 -27 -20 -8 4 -24 11 -35 15
-19 6 -18 7 5 14 39 12 44 11 57 -9z m638 9 c3 -5 -1 -10 -9 -10 -9 0 -16 5
-16 10 0 6 4 10 9 10 6 0 13 -4 16 -10z m715 -4 c0 -3 -4 -8 -10 -11 -5 -3
-10 -1 -10 4 0 6 5 11 10 11 6 0 10 -2 10 -4z m-470 -28 c0 -16 -3 -19 -11
-11 -6 6 -8 16 -5 22 11 17 16 13 16 -11z m566 5 c-10 -11 -36 -12 -36 -2 0 5
10 9 22 9 12 0 18 -3 14 -7z m-567 -45 c0 -7 -4 -22 -8 -32 -5 -14 -10 -16
-15 -7 -4 6 -3 18 3 25 6 7 8 16 4 19 -3 4 -1 7 5 7 7 0 12 -6 11 -12z m-551
-67 c3 -8 -1 -12 -9 -9 -7 2 -15 10 -17 17 -3 8 1 12 9 9 7 -2 15 -10 17 -17z
m542 -1 c0 -5 -5 -10 -11 -10 -5 0 -7 5 -4 10 3 6 8 10 11 10 2 0 4 -4 4 -10z
m-10 -60 c-6 -11 -12 -20 -14 -20 -2 0 -2 9 1 20 3 11 9 20 15 20 5 0 4 -9 -2
-20z m-3 -52 c-3 -8 -6 -5 -6 6 -1 11 2 17 5 13 3 -3 4 -12 1 -19z m148 -218
c7 0 15 5 17 12 3 7 16 -21 30 -62 42 -125 48 -145 47 -176 0 -21 -4 -15 -13
24 -17 69 -31 81 -22 19 5 -29 3 -69 -4 -98 -11 -44 -10 -52 5 -69 10 -11 32
-22 51 -26 49 -9 100 -64 59 -64 -9 0 -12 -6 -8 -17 6 -14 2 -14 -23 4 -16 11
-35 18 -42 16 -15 -6 -44 16 -37 27 2 4 -7 5 -20 2 -14 -2 -25 -8 -25 -13 0
-5 -6 -6 -14 -3 -17 6 -56 -29 -56 -51 0 -8 -4 -15 -10 -15 -11 0 -12 42 -1
80 5 16 13 24 24 22 10 -2 17 4 17 13 0 9 7 18 15 21 18 7 20 25 3 22 -8 -2
-12 22 -12 79 -1 46 -3 83 -6 83 -5 0 -5 38 1 175 1 45 4 57 6 33 3 -23 9 -38
18 -38z m-898 -66 c-3 -3 -12 -4 -19 -1 -8 3 -5 6 6 6 11 1 17 -2 13 -5z m-22
-26 c6 -4 2 -8 -7 -8 -10 0 -18 7 -18 17 0 9 3 12 8 7 4 -5 12 -12 17 -16z
m43 -35 c-10 -2 -26 -2 -35 0 -10 3 -2 5 17 5 19 0 27 -2 18 -5z m-13 -20
c-11 -3 -28 -12 -37 -21 -16 -13 -18 -13 -18 0 0 22 10 28 44 27 21 -1 25 -3
11 -6z m1795 -23 c0 -5 -4 -10 -10 -10 -5 0 -10 5 -10 10 0 6 5 10 10 10 6 0
10 -4 10 -10z m-1830 -60 c0 -5 -4 -10 -10 -10 -5 0 -10 5 -10 10 0 6 5 10 10
10 6 0 10 -4 10 -10z m2430 -5 c0 -2 -10 -10 -22 -16 -21 -11 -22 -11 -9 4 13
16 31 23 31 12z m-2483 -41 c-3 -3 -12 -4 -19 -1 -8 3 -5 6 6 6 11 1 17 -2 13
-5z m88 -4 c-3 -5 -12 -10 -18 -10 -7 0 -6 4 3 10 19 12 23 12 15 0z m1456
-27 c-8 -15 -10 -15 -11 -2 0 17 10 32 18 25 2 -3 -1 -13 -7 -23z m-1474 -29
c-3 -3 -12 -4 -19 -1 -8 3 -5 6 6 6 11 1 17 -2 13 -5z m-34 -66 c-2 -5 -19 -8
-36 -9 -25 0 -28 -2 -13 -8 16 -6 17 -9 5 -13 -9 -4 -20 2 -27 12 -10 16 -8
19 11 22 38 5 65 3 60 -4z m-6 -54 c-3 -3 -12 -4 -19 -1 -8 3 -5 6 6 6 11 1
17 -2 13 -5z m-217 -44 c0 -5 -5 -10 -11 -10 -5 0 -7 5 -4 10 3 6 8 10 11 10
2 0 4 -4 4 -10z m1030 -51 c-12 -41 -24 -53 -14 -14 7 32 13 45 19 45 2 0 0
-14 -5 -31z m47 -71 c-3 -8 -6 -5 -6 6 -1 11 2 17 5 13 3 -3 4 -12 1 -19z
m-1117 2 c-8 -5 -19 -10 -25 -10 -5 0 -3 5 5 10 8 5 20 10 25 10 6 0 3 -5 -5
-10z m1035 -61 c-10 -28 -23 -62 -30 -75 -12 -23 -13 -24 -18 -5 -3 11 0 19 5
18 5 -1 19 29 31 67 11 38 23 64 25 58 2 -7 -4 -35 -13 -63z m584 52 c12 -10
21 -23 19 -27 -1 -5 3 -18 8 -29 7 -12 8 -42 4 -75 -4 -30 -8 -50 -9 -44 0 7
-17 15 -36 18 -19 4 -35 11 -35 15 0 13 -39 21 -46 10 -3 -5 -10 -7 -15 -3 -6
3 -20 -3 -32 -14 -12 -11 -39 -23 -60 -26 -26 -5 -41 -14 -49 -31 -6 -13 -24
-29 -39 -36 -16 -6 -29 -17 -29 -25 0 -8 -6 -11 -17 -7 -11 4 -14 3 -9 -5 4
-7 3 -12 -3 -12 -13 0 -32 35 -24 44 3 3 1 6 -5 6 -7 0 -9 7 -4 18 11 29 49
72 62 72 10 0 10 3 0 15 -10 13 -9 15 8 15 12 0 24 5 28 11 3 6 17 9 30 6 13
-2 22 1 21 7 -1 6 9 10 23 8 20 -2 22 -1 10 7 -13 9 -12 11 3 11 10 0 15 5 12
10 -4 6 9 9 35 7 30 -3 45 1 53 13 7 9 24 20 40 24 15 3 27 13 27 21 0 19 2
19 29 -4z m249 -7 c31 1 63 5 70 9 6 5 12 3 12 -2 0 -6 7 -11 15 -11 8 0 15
-3 15 -7 0 -5 4 -14 9 -22 7 -11 13 -10 34 4 24 16 25 16 20 -4 -4 -16 -1 -19
17 -14 17 5 21 2 18 -13 -2 -16 2 -18 32 -15 32 3 33 2 20 -15 -8 -10 -10 -15
-3 -11 6 4 14 3 18 -3 12 -19 -68 -15 -99 5 -15 10 -32 12 -61 5 -21 -5 -44
-5 -50 -1 -16 13 -105 9 -105 -4 0 -6 -13 -21 -29 -33 l-29 -21 -16 59 c-16
55 -16 61 -1 84 18 27 48 38 53 20 2 -7 25 -11 60 -10z m-2078 -54 c0 -5 -5
-10 -11 -10 -5 0 -7 5 -4 10 3 6 8 10 11 10 2 0 4 -4 4 -10z m110 -20 c-20
-13 -33 -13 -25 0 3 6 14 10 23 10 15 0 15 -2 2 -10z m618 -15 c20 -14 34 -25
31 -25 -11 0 -69 31 -74 41 -10 15 4 10 43 -16z m136 0 c3 -8 1 -15 -3 -15 -5
0 -11 7 -15 15 -3 8 -1 15 3 15 5 0 11 -7 15 -15z m410 0 c-4 -8 -10 -15 -15
-15 -4 0 -5 -7 -2 -17 4 -11 3 -14 -5 -9 -7 4 -12 2 -12 -3 0 -6 4 -11 10 -11
5 0 -1 -24 -13 -52 -13 -29 -27 -65 -30 -79 -4 -15 -16 -29 -28 -32 -17 -4
-19 -3 -10 6 6 6 11 22 11 34 0 13 9 43 20 65 11 23 20 45 20 50 0 12 44 78
52 78 4 0 5 -7 2 -15z m-1144 1 c0 -2 -7 -7 -16 -10 -8 -3 -12 -2 -9 4 6 10
25 14 25 6z m2220 -56 c0 -5 -4 -10 -9 -10 -6 0 -13 5 -16 10 -3 6 1 10 9 10
9 0 16 -4 16 -10z m-1460 -21 c0 -6 -4 -7 -10 -4 -5 3 -10 11 -10 16 0 6 5 7
10 4 6 -3 10 -11 10 -16z m1210 3 c0 -13 -12 -22 -22 -16 -10 6 -1 24 13 24 5
0 9 -4 9 -8z m-2250 -22 c0 -5 -10 -10 -22 -10 -19 0 -20 2 -8 10 19 13 30 13
30 0z m995 0 c-3 -5 2 -10 12 -10 10 -1 36 -16 58 -35 32 -28 36 -35 20 -35
-27 0 -105 36 -105 49 0 5 -3 16 -6 25 -4 11 -1 16 11 16 9 0 13 -4 10 -10z
m95 -22 c0 -12 -6 -9 -26 13 -19 22 -19 22 4 8 12 -8 22 -17 22 -21z m173 15
c-3 -10 -12 -25 -18 -33 -7 -8 -22 -34 -34 -57 -24 -48 -37 -59 -18 -15 15 33
67 122 73 122 2 0 1 -8 -3 -17z m652 -13 c-3 -5 -10 -10 -16 -10 -5 0 -9 5 -9
10 0 6 7 10 16 10 8 0 12 -4 9 -10z m-1905 -31 c0 -12 -7 -19 -20 -19 -11 0
-20 5 -20 11 0 5 5 7 10 4 6 -3 10 3 10 15 0 12 5 18 10 15 6 -3 10 -15 10
-26z m968 -9 c5 0 15 -6 22 -14 6 -8 17 -13 23 -11 7 3 23 -5 37 -16 l25 -21
-25 6 c-14 3 -35 6 -47 6 -13 0 -22 5 -20 13 1 6 -4 11 -10 10 -7 -2 -21 4
-30 11 -10 8 -29 24 -43 35 l-25 21 42 -20 c23 -11 46 -20 51 -20z m1706 -41
c-8 -14 -54 4 -54 22 0 17 1 17 29 1 16 -9 28 -19 25 -23z m-2740 23 c2 -4 -4
-8 -14 -8 -10 0 -16 4 -14 8 3 4 9 8 14 8 5 0 11 -4 14 -8z m52 -35 c8 3 14 0
14 -7 0 -7 -8 -10 -20 -7 -11 3 -20 0 -20 -6 0 -6 -3 -8 -6 -4 -3 3 -2 16 2
29 6 18 9 19 12 6 2 -10 9 -15 18 -11z m139 -17 c3 -5 2 -10 -4 -10 -5 0 -13
5 -16 10 -3 6 -2 10 4 10 5 0 13 -4 16 -10z m795 -12 c-25 -12 -47 -22 -50
-23 -3 0 -12 -4 -20 -9 -12 -7 -13 -6 -3 4 15 16 83 48 103 49 8 0 -5 -9 -30
-21z m330 -23 c0 -19 -4 -35 -10 -35 -11 0 -13 30 -4 54 10 25 14 19 14 -19z
m72 13 c-7 -7 -12 -21 -12 -32 0 -24 -9 -16 -15 13 -2 12 0 19 4 16 5 -3 12 2
15 11 4 9 9 14 13 10 4 -3 1 -12 -5 -18z m853 2 c-4 -11 -2 -20 4 -20 6 0 11
7 11 16 0 11 9 8 38 -13 20 -15 40 -31 43 -36 3 -4 19 -12 35 -17 25 -7 26 -8
6 -9 -13 -1 -20 -5 -17 -11 3 -5 -1 -10 -10 -10 -9 0 -14 -4 -10 -9 3 -5 -8
-19 -24 -30 -34 -25 -49 -27 -31 -6 7 9 10 18 7 21 -3 3 -11 -3 -18 -14 -12
-20 -13 -20 -32 4 -22 29 -36 134 -18 134 7 0 9 5 6 10 -3 6 -1 10 5 10 7 0 9
-8 5 -20z m-1077 -3 c6 0 12 -2 12 -4 0 -6 -122 -64 -127 -59 -3 2 10 12 29
22 30 15 31 18 13 25 -11 4 -30 8 -42 8 -13 1 -23 6 -23 11 0 7 21 9 63 4 34
-4 68 -7 75 -7z m897 -26 c-3 -5 0 -13 6 -16 21 -14 27 -50 13 -84 -19 -45
-18 -58 7 -92 11 -16 17 -29 12 -29 -4 0 0 -5 10 -11 17 -10 74 -115 72 -134
0 -5 -4 -23 -8 -38 -7 -25 -11 -28 -38 -22 l-29 7 20 -35 c38 -64 -1 -147 -68
-147 -21 0 -23 -3 -17 -22 4 -13 10 -42 12 -66 4 -38 1 -48 -23 -73 -24 -25
-35 -29 -83 -29 -31 0 -96 7 -146 15 -122 20 -128 20 -114 -3 8 -13 35 -23 78
-32 92 -17 131 -37 131 -65 0 -12 -7 -28 -15 -35 -8 -7 -15 -17 -15 -22 0 -5
-12 -20 -26 -33 -25 -23 -35 -25 -123 -25 -134 0 -291 -11 -286 -21 6 -9 -28
-17 -125 -28 -79 -9 -137 -5 -146 10 -7 12 -51 11 -97 -2 -26 -7 -41 -18 -47
-35 -5 -13 -14 -24 -20 -24 -13 0 -13 -27 0 -32 16 -5 14 -98 -1 -98 -5 0 -6
-6 -3 -14 7 -19 -83 -39 -161 -34 -58 3 -60 4 -96 52 -51 68 -54 98 -19 248
48 211 67 263 113 321 42 51 163 140 312 229 95 57 230 153 286 204 77 70 100
78 199 69 47 -5 142 -9 211 -10 103 -1 126 1 122 13 -3 7 -12 11 -20 8 -8 -3
-11 -1 -8 4 3 6 1 10 -4 10 -6 0 -11 5 -11 10 0 6 5 10 11 10 6 0 34 25 63 55
28 30 57 55 64 55 7 0 11 -4 7 -9z m-1020 -11 c-3 -5 -11 -10 -16 -10 -6 0 -7
5 -4 10 3 6 11 10 16 10 6 0 7 -4 4 -10z m-915 -30 c0 -5 -5 -10 -11 -10 -5 0
-7 5 -4 10 3 6 8 10 11 10 2 0 4 -4 4 -10z m3081 0 c25 -14 25 -62 -1 -85 -11
-10 -20 -26 -20 -35 0 -9 -8 -27 -19 -38 l-18 -22 -19 21 c-19 21 -20 55 -4
73 5 5 6 15 3 22 -3 8 0 14 6 14 6 0 11 5 11 10 0 9 30 47 38 49 2 1 12 -4 23
-9z m-2186 -13 c-27 -17 -95 -40 -101 -34 -6 6 67 32 79 29 4 -1 7 3 7 8 0 6
8 10 17 10 15 0 15 -2 -2 -13z m312 -39 c-3 -7 -5 -2 -5 12 0 14 2 19 5 13 2
-7 2 -19 0 -25z m-1257 -8 c0 -5 -2 -10 -4 -10 -3 0 -8 5 -11 10 -3 6 -1 10 4
10 6 0 11 -4 11 -10z m3967 4 c-3 -3 -12 -4 -19 -1 -8 3 -5 6 6 6 11 1 17 -2
13 -5z m-2866 -27 c-10 -9 -11 -8 -5 6 3 10 9 15 12 12 3 -3 0 -11 -7 -18z
m992 -14 c-7 -2 -19 -2 -25 0 -7 3 -2 5 12 5 14 0 19 -2 13 -5z m-2103 -13
c-25 -8 -25 -8 5 -9 27 -1 28 -3 11 -13 -14 -8 -24 -8 -37 1 -11 6 -36 12 -56
13 -35 1 -34 2 12 8 73 10 96 10 65 0z m3488 -55 c-7 -8 -38 23 -38 38 0 6 10
2 22 -10 12 -13 19 -25 16 -28z m-3513 -85 c-3 -5 -11 -10 -16 -10 -6 0 -7 5
-4 10 3 6 11 10 16 10 6 0 7 -4 4 -10z m-81 -145 c-4 -8 -8 -15 -10 -15 -2 0
-4 7 -4 15 0 8 4 15 10 15 5 0 7 -7 4 -15z m3796 -80 c-8 -9 -7 -14 3 -18 17
-6 16 30 -2 63 l-13 25 25 -25 c14 -14 37 -36 51 -49 31 -28 33 -44 5 -69 -32
-30 -76 -35 -105 -13 -22 18 -23 20 -8 29 11 6 15 17 11 31 -3 13 -1 19 6 14
6 -4 8 1 4 13 -3 10 -9 30 -12 44 l-7 25 27 -29 c19 -21 23 -31 15 -41z
m-3759 47 c-19 -6 -12 -32 10 -32 11 0 18 -4 15 -9 -7 -11 -76 -20 -76 -9 0 4
5 8 10 8 6 0 10 7 10 15 0 8 -6 15 -14 15 -8 0 -17 3 -20 8 -2 4 14 7 35 7 22
0 36 -1 30 -3z m4314 -102 c-3 -5 -11 -10 -16 -10 -6 0 -7 5 -4 10 3 6 11 10
16 10 6 0 7 -4 4 -10z m-120 -40 c-3 -5 -11 -10 -16 -10 -6 0 -7 5 -4 10 3 6
11 10 16 10 6 0 7 -4 4 -10z m545 -40 c0 -5 -10 -10 -22 -9 -22 0 -22 1 -3 9
11 5 21 9 23 9 1 1 2 -3 2 -9z m-4800 -44 c0 -2 -7 -7 -16 -10 -8 -3 -12 -2
-9 4 6 10 25 14 25 6z m-10 -106 c0 -5 -4 -10 -10 -10 -5 0 -10 5 -10 10 0 6
5 10 10 10 6 0 10 -4 10 -10z m4650 -24 c0 -25 -18 -28 -40 -6 l-20 20 30 0
c19 0 30 -5 30 -14z m-4640 -171 c10 -12 10 -15 -4 -15 -9 0 -16 7 -16 15 0 8
2 15 4 15 2 0 9 -7 16 -15z m-30 -15 c0 -5 -4 -10 -10 -10 -5 0 -10 5 -10 10
0 6 5 10 10 10 6 0 10 -4 10 -10z m4790 -54 c0 -3 -4 -8 -10 -11 -5 -3 -10 -1
-10 4 0 6 5 11 10 11 6 0 10 -2 10 -4z m-115 -16 c3 -5 1 -10 -4 -10 -6 0 -11
5 -11 10 0 6 2 10 4 10 3 0 8 -4 11 -10z m-4670 -20 c3 -5 2 -10 -4 -10 -5 0
-13 5 -16 10 -3 6 -2 10 4 10 5 0 13 -4 16 -10z m-55 -70 c0 -5 -4 -10 -10
-10 -5 0 -10 5 -10 10 0 6 5 10 10 10 6 0 10 -4 10 -10z m-193 -16 c-3 -3 -12
-4 -19 -1 -8 3 -5 6 6 6 11 1 17 -2 13 -5z m103 -54 c0 -5 -7 -10 -15 -10 -8
0 -15 5 -15 10 0 6 7 10 15 10 8 0 15 -4 15 -10z m0 -40 c0 -5 -4 -10 -10 -10
-5 0 -10 5 -10 10 0 6 5 10 10 10 6 0 10 -4 10 -10z m-10 -30 c0 -5 -5 -10
-11 -10 -5 0 -7 5 -4 10 3 6 8 10 11 10 2 0 4 -4 4 -10z m4730 0 c0 -5 -2 -10
-4 -10 -3 0 -8 5 -11 10 -3 6 -1 10 4 10 6 0 11 -4 11 -10z m-180 -117 c-8 -3
-18 -11 -22 -17 -5 -7 -8 -4 -8 7 0 11 7 17 23 16 15 0 17 -2 7 -6z m70 -8 c0
-8 -7 -15 -16 -15 -11 0 -14 -6 -9 -20 5 -17 2 -20 -20 -20 -14 0 -24 -4 -21
-9 3 -4 -6 -6 -19 -3 -15 2 -25 11 -25 21 0 13 2 13 9 2 13 -20 39 -7 47 23 5
22 17 30 47 35 4 0 7 -6 7 -14z m300 -1 c0 -9 -7 -14 -17 -12 -25 5 -28 28 -4
28 12 0 21 -6 21 -16z m-55 -124 c3 -5 2 -10 -4 -10 -5 0 -17 -3 -27 -7 -16
-6 -17 -5 -4 10 17 19 26 21 35 7z m-5005 -80 c0 -5 -4 -10 -10 -10 -5 0 -10
5 -10 10 0 6 5 10 10 10 6 0 10 -4 10 -10z m-107 -17 c-7 -2 -19 -2 -25 0 -7
3 -2 5 12 5 14 0 19 -2 13 -5z"/>
<path d="M2435 1540 c3 -5 13 -10 21 -10 8 0 14 5 14 10 0 6 -9 10 -21 10 -11
0 -17 -4 -14 -10z"/>
<path d="M2496 1532 c9 -9 169 -32 220 -32 19 0 25 3 18 10 -6 6 -55 15 -110
20 -124 12 -140 12 -128 2z"/>
<path d="M2132 3963 c-6 -20 -7 -32 -2 -27 10 10 25 64 18 64 -3 0 -10 -16
-16 -37z"/>
<path d="M3110 3964 c0 -9 41 -44 51 -44 5 0 -1 11 -13 25 -21 24 -38 32 -38
19z"/>
<path d="M4795 3909 c-9 -14 -2 -20 14 -10 8 6 9 11 3 15 -6 3 -14 1 -17 -5z"/>
<path d="M4203 3903 c9 -2 23 -2 30 0 6 3 -1 5 -18 5 -16 0 -22 -2 -12 -5z"/>
<path d="M4180 3873 c0 -7 -6 -13 -14 -13 -7 0 -19 -6 -25 -14 -6 -8 -31 -17
-54 -20 -23 -4 -49 -11 -57 -16 -12 -8 -11 -11 8 -16 12 -4 22 -11 22 -16 0
-6 12 -8 30 -5 23 5 28 3 23 -8 -6 -16 -2 -17 84 -18 39 0 50 -3 46 -14 -3 -8
-8 -11 -11 -9 -3 3 -10 2 -16 -3 -24 -18 -66 -22 -72 -6 -4 8 -10 15 -15 15
-6 0 -5 -10 2 -21 9 -17 17 -20 45 -16 19 3 34 2 34 -2 0 -22 47 3 57 30 10
25 16 29 36 24 14 -4 28 -2 31 4 4 6 19 12 34 12 20 1 17 4 -13 9 -22 4 -30 8
-18 9 36 2 36 19 1 23 -26 2 -33 8 -33 25 0 11 -3 25 -7 29 -5 4 -8 2 -8 -4 0
-7 -10 -12 -22 -11 -22 0 -22 1 -3 9 l20 9 -20 1 c-11 1 -29 2 -40 1 -18 -1
-18 0 3 9 31 13 27 19 -13 17 -20 -1 -35 -7 -35 -14z"/>
<path d="M4390 3866 c0 -28 56 -106 88 -122 26 -13 62 -44 62 -54 0 -9 -36
-50 -44 -50 -4 0 -2 9 4 20 6 12 7 20 1 20 -5 0 -11 -5 -13 -12 -2 -6 -35 -14
-74 -18 -40 -4 -53 -8 -32 -9 30 -1 36 -4 31 -17 -5 -12 -1 -15 13 -11 10 3
37 9 59 13 22 4 45 11 52 16 7 5 18 6 24 2 9 -5 10 -2 6 10 -5 13 -3 15 11 7
18 -10 77 -1 102 14 8 5 10 23 5 59 -11 85 -13 88 -48 81 -18 -4 -42 -16 -53
-27 -19 -17 -22 -17 -28 -3 -3 9 -6 25 -6 36 0 10 -4 19 -9 19 -4 0 -7 -18 -6
-40 1 -22 1 -40 -1 -40 -1 0 -12 16 -24 35 -21 34 -50 47 -50 23 0 -15 -38 29
-45 53 -9 27 -25 23 -25 -5z m83 -233 c-7 -2 -21 -2 -30 0 -10 3 -4 5 12 5 17
0 24 -2 18 -5z"/>
<path d="M4440 3860 c0 -5 5 -10 11 -10 5 0 7 5 4 10 -3 6 -8 10 -11 10 -2 0
-4 -4 -4 -10z"/>
<path d="M4783 3854 c-15 -16 -16 -24 -4 -24 8 0 24 30 19 35 -2 2 -9 -3 -15
-11z"/>
<path d="M4318 3813 c7 -3 16 -2 19 1 4 3 -2 6 -13 5 -11 0 -14 -3 -6 -6z"/>
<path d="M4398 3743 c7 -3 16 -2 19 1 4 3 -2 6 -13 5 -11 0 -14 -3 -6 -6z"/>
<path d="M4285 3683 c-3 -14 -3 -33 0 -44 4 -13 2 -19 -9 -19 -9 0 -16 5 -16
11 0 6 -7 9 -15 5 -19 -7 -19 -1 0 17 12 13 12 16 -6 20 -19 5 -21 2 -17 -28
3 -31 1 -35 -24 -40 -16 -4 -26 -10 -23 -15 3 -4 22 -4 42 1 30 7 40 5 50 -7
7 -10 16 -13 25 -8 7 5 20 9 28 10 55 4 55 4 40 14 -12 8 -11 10 7 10 12 0 25
5 28 10 6 10 -20 7 -61 -5 -21 -6 -2 36 20 44 19 7 17 10 -21 28 l-41 20 -7
-24z m50 -14 c3 -3 -6 -11 -20 -17 -22 -10 -25 -9 -25 8 0 14 6 19 20 17 11
-2 22 -6 25 -8z"/>
<path d="M4163 3650 c5 -39 16 -50 24 -22 3 12 9 22 14 22 5 0 9 5 9 11 0 6
-9 8 -21 4 -15 -5 -19 -4 -15 4 4 6 2 11 -3 11 -6 0 -9 -14 -8 -30z"/>
<path d="M3680 3625 c0 -9 30 -65 35 -65 2 0 2 7 -2 16 -5 14 -3 15 15 5 11
-6 31 -11 44 -10 18 0 14 4 -16 15 -21 7 -42 11 -47 8 -5 -3 -9 2 -9 10 0 8
-4 18 -10 21 -5 3 -10 3 -10 0z"/>
<path d="M4425 3601 l-20 -8 20 -5 c11 -2 -2 -8 -32 -12 -51 -8 -65 -18 -43
-31 6 -3 10 -2 10 4 0 5 21 13 48 17 26 4 56 10 67 15 18 7 18 8 -5 9 -23 1
-23 2 -5 10 l20 9 -20 0 c-11 0 -29 -4 -40 -8z"/>
<path d="M4153 3568 c-2 -5 6 -9 19 -9 20 -1 21 -2 3 -6 -30 -7 -43 -23 -19
-24 18 0 18 -1 -1 -9 -17 -7 -15 -9 10 -8 17 0 44 4 60 9 l30 8 -33 -3 c-18
-1 -35 1 -38 6 -3 4 8 8 25 8 16 0 32 4 35 9 3 4 -7 7 -22 5 -15 -2 -19 -1 -9
2 9 3 17 10 17 15 0 11 -70 8 -77 -3z"/>
<path d="M4310 3560 c-13 -8 -12 -10 3 -10 9 0 17 5 17 10 0 12 -1 12 -20 0z"/>
<path d="M3727 3515 c3 -11 21 -41 40 -66 18 -26 33 -52 33 -59 0 -7 7 -10 16
-6 9 3 20 6 24 6 13 0 43 67 35 80 -3 6 -11 8 -16 4 -5 -3 -16 0 -24 6 -8 6
-20 8 -26 4 -8 -4 -9 -3 -5 4 5 8 -1 12 -18 12 -13 0 -27 6 -29 13 -4 8 -6 8
-6 -2 -1 -11 -5 -10 -16 5 -15 19 -15 19 -8 -1z"/>
<path d="M1297 3269 c11 -12 26 -18 33 -14 13 8 -16 34 -40 35 -11 0 -9 -6 7
-21z"/>
<path d="M3599 3148 c-2 -32 -9 -54 -27 -77 -21 -29 -80 -62 -99 -56 -27 9
-22 -15 7 -31 16 -10 30 -22 30 -26 0 -8 19 12 80 85 36 42 50 46 57 16 5 -19
7 -18 23 9 11 18 16 40 13 56 -5 23 -10 27 -29 22 -12 -3 -26 -2 -29 4 -9 14
-25 12 -26 -2z"/>
<path d="M2130 3074 c0 -8 5 -12 10 -9 6 4 8 11 5 16 -9 14 -15 11 -15 -7z"/>
<path d="M2912 2978 c-34 -17 -20 -33 27 -30 30 2 47 -3 62 -17 17 -16 31 -18
77 -15 32 3 67 7 80 10 25 5 30 24 7 24 -8 0 -15 3 -15 8 0 4 -8 12 -18 19
-14 8 -33 8 -79 -1 -49 -11 -63 -11 -78 1 -22 15 -32 16 -63 1z"/>
<path d="M1358 2953 c7 -3 16 -2 19 1 4 3 -2 6 -13 5 -11 0 -14 -3 -6 -6z"/>
<path d="M1290 2729 c0 -5 5 -7 10 -4 6 3 10 8 10 11 0 2 -4 4 -10 4 -5 0 -10
-5 -10 -11z"/>
<path d="M1175 2670 c-3 -5 -1 -10 4 -10 6 0 11 5 11 10 0 6 -2 10 -4 10 -3 0
-8 -4 -11 -10z"/>
<path d="M1176 2635 c3 -8 2 -20 -2 -27 -5 -7 -9 -19 -11 -27 -1 -8 -7 -17
-13 -21 -9 -6 -9 -9 0 -15 18 -11 28 5 35 58 5 31 4 47 -4 47 -6 0 -8 -7 -5
-15z"/>
<path d="M1092 2629 c-13 -5 -28 -7 -32 -4 -5 3 -11 1 -14 -4 -3 -5 12 -13 34
-19 38 -9 40 -9 40 14 0 13 -1 24 -2 23 -2 0 -14 -4 -26 -10z"/>
<path d="M1218 2613 c7 -3 16 -2 19 1 4 3 -2 6 -13 5 -11 0 -14 -3 -6 -6z"/>
<path d="M1086 2568 c3 -4 0 -8 -7 -8 -7 0 -10 -3 -6 -6 7 -7 47 5 47 15 0 3
-9 7 -19 7 -11 0 -17 -4 -15 -8z"/>
<path d="M1175 2490 c-16 -7 -17 -9 -3 -9 9 -1 20 4 23 9 7 11 7 11 -20 0z"/>
<path d="M820 2300 c-9 -6 -10 -10 -3 -10 6 0 15 5 18 10 8 12 4 12 -15 0z"/>
<path d="M760 2273 c0 -5 4 -15 10 -23 11 -18 25 -7 17 15 -6 15 -27 21 -27 8z"/>
<path d="M696 2174 c-4 -10 -1 -14 6 -12 15 5 23 28 10 28 -5 0 -13 -7 -16
-16z"/>
<path d="M600 2029 c0 -5 5 -7 10 -4 6 3 10 8 10 11 0 2 -4 4 -10 4 -5 0 -10
-5 -10 -11z"/>
<path d="M4620 1997 c0 -8 7 -17 15 -21 8 -3 15 -2 15 3 0 5 -7 14 -15 21 -12
10 -15 10 -15 -3z"/>
<path d="M4733 1843 c8 -13 67 -23 67 -11 0 4 -9 8 -19 8 -11 0 -27 3 -37 7
-11 4 -15 3 -11 -4z"/>
<path d="M565 1750 c-3 -6 1 -7 9 -4 18 7 21 14 7 14 -6 0 -13 -4 -16 -10z"/>
<path d="M533 1705 c0 -22 2 -30 4 -17 2 12 2 30 0 40 -3 9 -5 -1 -4 -23z"/>
<path d="M4758 1733 c7 -3 16 -2 19 1 4 3 -2 6 -13 5 -11 0 -14 -3 -6 -6z"/>
<path d="M4820 1620 c0 -5 5 -10 10 -10 6 0 10 5 10 10 0 6 -4 10 -10 10 -5 0
-10 -4 -10 -10z"/>
<path d="M4812 1559 c2 -6 8 -10 13 -10 5 0 11 4 13 10 2 6 -4 11 -13 11 -9 0
-15 -5 -13 -11z"/>
<path d="M5220 1540 c0 -5 5 -10 11 -10 5 0 7 5 4 10 -3 6 -8 10 -11 10 -2 0
-4 -4 -4 -10z"/>
<path d="M524 1521 c4 -5 1 -11 -5 -13 -7 -2 -6 -8 4 -16 12 -10 15 -8 19 13
4 17 1 25 -9 25 -8 0 -12 -4 -9 -9z"/>
<path d="M5038 1523 c7 -3 16 -2 19 1 4 3 -2 6 -13 5 -11 0 -14 -3 -6 -6z"/>
<path d="M500 1450 c0 -5 5 -10 11 -10 5 0 7 5 4 10 -3 6 -8 10 -11 10 -2 0
-4 -4 -4 -10z"/>
<path d="M523 1413 c9 -2 23 -2 30 0 6 3 -1 5 -18 5 -16 0 -22 -2 -12 -5z"/>
<path d="M561 1333 c-1 -7 -8 -13 -16 -13 -8 0 -15 -4 -15 -10 0 -12 10 -13
29 -1 7 5 11 15 8 22 -4 10 -6 10 -6 2z"/>
<path d="M5398 1313 c-10 -2 -18 -9 -18 -15 0 -5 7 -7 16 -4 9 3 20 6 25 6 5
0 9 5 9 10 0 10 -3 11 -32 3z"/>
<path d="M556 1245 c4 -8 8 -15 10 -15 2 0 4 7 4 15 0 8 -4 15 -10 15 -5 0 -7
-7 -4 -15z"/>
<path d="M480 1228 c0 -12 38 -10 45 2 4 6 -5 9 -19 8 -15 -1 -26 -6 -26 -10z"/>
<path d="M5695 1190 c3 -5 8 -10 11 -10 2 0 4 5 4 10 0 6 -5 10 -11 10 -5 0
-7 -4 -4 -10z"/>
<path d="M5585 1160 c3 -5 8 -10 11 -10 2 0 4 5 4 10 0 6 -5 10 -11 10 -5 0
-7 -4 -4 -10z"/>
<path d="M495 1150 c-3 -5 -1 -10 4 -10 6 0 11 5 11 10 0 6 -2 10 -4 10 -3 0
-8 -4 -11 -10z"/>
<path d="M545 1130 c-3 -5 -1 -10 4 -10 6 0 11 5 11 10 0 6 -2 10 -4 10 -3 0
-8 -4 -11 -10z"/>
<path d="M5418 1113 c7 -3 16 -2 19 1 4 3 -2 6 -13 5 -11 0 -14 -3 -6 -6z"/>
<path d="M200 1084 c0 -8 5 -12 10 -9 6 3 10 10 10 16 0 5 -4 9 -10 9 -5 0
-10 -7 -10 -16z"/>
<path d="M230 1050 c-9 -6 -10 -10 -3 -10 6 0 15 5 18 10 8 12 4 12 -15 0z"/>
<path d="M5525 1039 c-10 -14 -1 -21 19 -13 9 3 13 10 10 15 -7 12 -21 11 -29
-2z"/>
<path d="M205 990 c-3 -5 1 -10 10 -10 9 0 13 5 10 10 -3 6 -8 10 -10 10 -2 0
-7 -4 -10 -10z"/>
<path d="M268 993 c7 -3 16 -2 19 1 4 3 -2 6 -13 5 -11 0 -14 -3 -6 -6z"/>
<path d="M330 970 c0 -5 5 -10 10 -10 6 0 10 5 10 10 0 6 -4 10 -10 10 -5 0
-10 -4 -10 -10z"/>
<path d="M278 963 c7 -3 16 -2 19 1 4 3 -2 6 -13 5 -11 0 -14 -3 -6 -6z"/>
<path d="M355 944 c-11 -11 -25 -14 -45 -10 -34 6 -34 7 -18 -31 6 -15 11 -31
10 -35 -1 -5 11 -8 26 -8 16 0 37 -7 48 -15 10 -8 26 -14 34 -14 10 0 11 2 3
6 -21 8 -15 26 7 20 11 -3 20 -1 20 4 0 5 -8 9 -18 9 -11 0 -29 9 -42 20 l-23
20 21 19 c12 10 22 21 22 25 0 12 -29 6 -45 -10z"/>
<path d="M5478 953 c7 -3 16 -2 19 1 4 3 -2 6 -13 5 -11 0 -14 -3 -6 -6z"/>
<path d="M5447 943 c-3 -5 6 -19 20 -33 16 -16 27 -20 32 -12 4 6 21 9 41 7
24 -3 30 -1 23 6 -6 6 -27 12 -48 14 -20 2 -42 9 -50 15 -7 6 -16 7 -18 3z"/>
<path d="M5450 851 c0 -6 5 -13 10 -16 6 -3 10 1 10 9 0 9 -4 16 -10 16 -5 0
-10 -4 -10 -9z"/>
<path d="M305 790 c3 -5 8 -10 11 -10 2 0 4 5 4 10 0 6 -5 10 -11 10 -5 0 -7
-4 -4 -10z"/>
<path d="M260 759 c0 -24 23 -21 28 4 2 10 -3 17 -12 17 -10 0 -16 -9 -16 -21z"/>
<path d="M5436 735 c-11 -8 -15 -15 -8 -15 6 0 9 -7 6 -15 -4 -8 -17 -15 -30
-15 -27 0 -32 -17 -9 -26 24 -10 17 -22 -10 -16 -14 2 -25 0 -25 -7 0 -5 6 -8
14 -5 7 3 16 -2 19 -10 7 -17 37 -22 37 -6 0 16 27 12 45 -6 22 -22 28 -12 14
20 -11 23 -10 28 6 40 14 10 15 15 5 21 -8 5 -18 1 -26 -10 -8 -10 -17 -15
-21 -12 -3 4 -3 7 2 7 4 0 2 7 -5 15 -10 12 -9 16 4 21 9 3 16 12 16 20 0 18
-10 17 -34 -1z"/>
<path d="M5485 729 c-9 -14 -2 -20 14 -10 8 6 9 11 3 15 -6 3 -14 1 -17 -5z"/>
<path d="M5542 700 c0 -14 2 -19 5 -12 2 6 2 18 0 25 -3 6 -5 1 -5 -13z"/>
<path d="M220 691 c0 -6 5 -13 10 -16 6 -3 10 1 10 9 0 9 -4 16 -10 16 -5 0
-10 -4 -10 -9z"/>
<path d="M10 626 c0 -9 5 -16 10 -16 6 0 10 4 10 9 0 6 -4 13 -10 16 -5 3 -10
-1 -10 -9z"/>
<path d="M45 580 c3 -5 14 -10 23 -10 15 0 15 2 2 10 -20 13 -33 13 -25 0z"/>
<path d="M5275 580 c-3 -5 -1 -10 4 -10 6 0 11 5 11 10 0 6 -2 10 -4 10 -3 0
-8 -4 -11 -10z"/>
<path d="M5400 580 c0 -5 5 -10 11 -10 5 0 7 5 4 10 -3 6 -8 10 -11 10 -2 0
-4 -4 -4 -10z"/>
<path d="M5436 575 c-3 -9 0 -15 9 -15 16 0 20 16 6 24 -5 3 -11 -1 -15 -9z"/>
<path d="M14 545 c-2 -19 3 -25 20 -25 11 0 28 5 36 10 13 8 12 10 -5 11 -11
1 -23 1 -27 0 -5 0 -8 6 -8 14 0 26 -15 16 -16 -10z"/>
<path d="M10 500 c0 -5 5 -10 10 -10 6 0 10 5 10 10 0 6 -4 10 -10 10 -5 0
-10 -4 -10 -10z"/>
<path d="M40 500 c0 -5 5 -10 10 -10 6 0 10 5 10 10 0 6 -4 10 -10 10 -5 0
-10 -4 -10 -10z"/>
<path d="M5560 440 c0 -5 5 -10 11 -10 5 0 7 5 4 10 -3 6 -8 10 -11 10 -2 0
-4 -4 -4 -10z"/>
<path d="M5490 389 c0 -5 5 -7 10 -4 6 3 10 8 10 11 0 2 -4 4 -10 4 -5 0 -10
-5 -10 -11z"/>
<path d="M5610 389 c0 -5 5 -7 10 -4 6 3 10 8 10 11 0 2 -4 4 -10 4 -5 0 -10
-5 -10 -11z"/>
<path d="M5565 190 c-3 -5 -1 -10 4 -10 6 0 11 5 11 10 0 6 -2 10 -4 10 -3 0
-8 -4 -11 -10z"/>
<path d="M175 20 c-3 -5 -1 -10 4 -10 6 0 11 5 11 10 0 6 -2 10 -4 10 -3 0 -8
-4 -11 -10z"/>
</g>
</svg>
